<svg xmlns="http://www.w3.org/2000/svg" shape-rendering="crispEdges" viewBox="0 -0.5 16 16">
  <metadata>Made with Pixels to Svg https://codepen.io/shshaw/pen/XbxvNj</metadata>
  <path stroke="#3d281b" d="M1 0h2m10 0h2M0 1h1m2 0h1m8 0h1m2 0h1M0 2h1m1 0h1m1 0h3m2 0h3m1 0h1m1 0h1M1 3h4m2 0h2m2 0h4M2 4h5m2 0h5M6 7h1m2 0h1M5 8h2m2 0h2M6 9h1m2 0h1m-3 2h2"/>
  <path stroke="#5b3d2a" d="M1 1h2m10 0h2M1 2h1m1 0h1m3 0h2m3 0h1m1 0h1M5 3h2m2 0h2M7 4h2M7 6h2M7 7h2M4 8h1m2 0h2m2 0h1M5 9h1m4 0h1m-5 1h1m2 0h1"/>
  <path stroke="#000" d="M1 5h2m1 0h6m1 0h4M2 6h2m1 0h2m2 0h2m1 0h2M3 7h3m4 0h3"/>
  <path stroke="#e4e4e4" d="M3 5h1m6 0h1M4 6h1m6 0h1M0 7h1m14 0h1M1 8h1m12 0h1M2 9h3m6 0h3m-9 1h1m4 0h1m-7 1h1m1 0h1m2 0h1m1 0h1M0 12h1m2 0h1m2 0h1m2 0h1m2 0h1m2 0h1M1 13h2m2 0h1m4 0h1m2 0h2M5 14h1m4 0h1m-7 1h1m6 0h1"/>
  <path stroke="#c66464" d="M7 9h1"/>
  <path stroke="#b33f3f" d="M8 9h1m-2 1h2"/>
</svg>
