<?xml version="1.0" standalone="no"?>
<!DOCTYPE svg PUBLIC "-//W3C//DTD SVG 20010904//EN"
 "http://www.w3.org/TR/2001/REC-SVG-20010904/DTD/svg10.dtd">
<svg version="1.0" xmlns="http://www.w3.org/2000/svg"
 width="300.000000pt" height="450.000000pt" viewBox="0 0 300.000000 450.000000"
 preserveAspectRatio="xMidYMid meet">

<g transform="translate(0.000000,450.000000) scale(0.100000,-0.100000)"
fill="#000000" stroke="none">
<path d="M0 4125 l0 -375 413 -3 412 -2 -412 -3 -413 -2 0 -417 0 -417 145
-146 c134 -135 145 -149 145 -183 0 -31 -3 -37 -21 -37 -20 0 -21 4 -17 44 l5
44 -128 128 c-90 90 -129 123 -129 109 0 -11 48 -68 115 -135 104 -106 115
-120 115 -153 0 -31 -3 -37 -21 -37 -20 0 -21 4 -17 44 l5 44 -98 98 c-70 70
-99 93 -99 79 0 -10 38 -58 85 -106 75 -76 85 -91 85 -123 0 -30 -3 -36 -21
-36 -20 0 -21 4 -17 44 5 44 4 45 -63 112 -86 85 -98 61 -14 -27 46 -48 55
-64 55 -93 0 -30 -4 -36 -21 -36 -20 0 -21 4 -17 44 5 41 3 47 -33 82 l-39 38
0 -152 c0 -149 0 -152 22 -152 38 0 57 26 51 71 -5 35 -3 39 16 39 17 0 21 -6
21 -29 0 -42 -44 -91 -81 -91 -16 0 -29 -4 -29 -10 0 -5 17 -10 37 -10 28 0
45 8 69 31 28 27 31 36 27 70 -5 35 -3 39 16 39 38 0 28 -53 -20 -105 -37 -40
-46 -45 -85 -45 -24 0 -44 -4 -44 -10 0 -5 23 -10 52 -10 49 0 56 3 99 46 43
43 46 49 42 85 -5 35 -3 39 16 39 17 0 21 -6 21 -31 0 -23 -13 -44 -57 -90
-56 -59 -56 -59 -115 -59 -32 0 -58 -4 -58 -10 0 -6 29 -10 68 -10 l68 0 49
50 c27 27 54 50 59 50 6 0 -14 -25 -44 -55 l-54 -55 -73 0 -73 0 0 -1150 0
-1150 1500 0 1500 0 0 515 0 515 -53 0 c-81 0 -141 25 -199 83 l-51 51 49 40
c104 87 110 94 97 107 -9 9 -27 0 -83 -46 -39 -32 -73 -55 -77 -51 -13 13 -15
118 -3 161 7 24 23 59 36 76 26 36 24 49 -9 50 -20 1 -20 1 3 8 14 4 85 7 158
6 105 -2 132 0 132 11 0 11 -30 13 -152 13 -181 -2 -187 -1 -171 9 6 4 82 6
167 5 91 -2 156 1 156 6 0 16 -30 19 -198 17 -108 -1 -161 2 -159 9 2 5 15 9
28 8 63 -4 286 0 322 6 4 0 7 9 7 19 0 15 -6 18 -30 14 -26 -4 -30 -1 -30 18
0 19 4 22 30 18 20 -3 30 0 30 9 0 8 -13 13 -35 13 -22 0 -35 -5 -35 -13 0
-28 -45 -57 -88 -57 -23 0 -42 5 -42 10 0 6 17 10 38 10 50 0 72 24 72 77 0
53 -25 76 -77 71 -29 -2 -38 1 -38 12 0 12 10 14 45 12 46 -4 90 -33 90 -59 0
-8 13 -13 35 -13 22 0 35 5 35 13 0 9 -10 12 -30 9 -26 -4 -30 -1 -30 18 0 19
4 22 29 18 l28 -4 2 93 1 93 -128 0 c-116 0 -131 -2 -147 -20 -10 -11 -23 -20
-29 -20 -6 0 1 11 16 25 26 24 32 25 158 25 84 0 130 4 130 11 0 7 -48 9 -145
7 -80 -2 -145 0 -145 5 0 4 65 7 145 7 l145 0 0 45 c0 44 -1 45 -32 45 -30 0
-33 -3 -33 -30 0 -21 5 -30 16 -30 12 0 15 7 11 25 -3 18 0 25 12 25 17 0 20
-17 10 -44 -9 -24 -61 -21 -69 4 -13 39 3 60 46 60 21 0 39 5 39 10 0 18 -86
11 -103 -8 -10 -10 -14 -21 -11 -25 4 -3 4 -18 0 -32 -5 -19 -13 -25 -35 -25
-28 0 -41 15 -41 46 0 8 16 32 36 54 35 38 39 40 95 40 33 0 59 4 59 10 0 6
-29 10 -68 10 l-67 0 -85 -85 c-47 -47 -89 -85 -95 -85 -5 0 31 41 80 90 l90
90 72 0 73 0 0 1145 0 1145 -1500 0 -1500 0 0 -375z m1580 275 l0 -90 -50 0
c-43 0 -50 3 -50 20 0 11 -7 20 -15 20 -8 0 -15 -9 -15 -20 0 -17 -7 -20 -40
-20 l-40 0 0 90 0 90 105 0 105 0 0 -90z m-340 -5 l0 -85 -50 0 c-38 0 -50 4
-50 15 0 8 -4 15 -10 15 -5 0 -10 -7 -10 -15 0 -8 -7 -15 -15 -15 -12 0 -15
16 -15 85 l0 85 75 0 75 0 0 -85z m640 5 c0 -64 -3 -80 -15 -80 -8 0 -15 7
-15 15 0 8 -4 15 -10 15 -5 0 -10 -7 -10 -15 0 -10 -11 -15 -35 -15 l-35 0 0
80 0 80 60 0 60 0 0 -80z m-1560 -15 c0 -37 -4 -65 -10 -65 -5 0 -10 6 -11 13
0 10 -2 10 -6 0 -2 -7 -16 -13 -29 -13 -23 0 -24 3 -24 65 l0 65 40 0 40 0 0
-65z m410 5 c0 -53 -2 -60 -20 -60 -11 0 -20 6 -21 13 0 10 -2 10 -6 0 -2 -7
-11 -13 -19 -13 -10 0 -14 15 -14 60 l0 60 40 0 40 0 0 -60z m300 -10 l0 -70
-30 0 c-20 0 -30 5 -30 15 0 8 -4 15 -10 15 -5 0 -10 -7 -10 -15 0 -11 -11
-15 -40 -15 l-40 0 0 70 0 70 80 0 80 0 0 -70z m-420 -5 l0 -65 -40 0 c-33 0
-40 3 -40 20 0 11 -4 20 -10 20 -5 0 -10 -9 -10 -20 0 -18 -7 -20 -55 -20
l-55 0 0 65 0 65 105 0 105 0 0 -65z m1450 10 c0 -48 -2 -55 -20 -55 -11 0
-20 7 -20 15 0 8 -4 15 -10 15 -5 0 -10 -7 -10 -15 0 -11 -11 -15 -40 -15
l-40 0 0 55 0 55 70 0 70 0 0 -55z m190 -15 c0 -43 -3 -50 -20 -50 -11 0 -20
6 -21 13 0 10 -2 10 -6 0 -11 -29 -23 -10 -23 37 l0 50 35 0 35 0 0 -50z
m-2070 -5 c0 -33 -4 -45 -15 -45 -8 0 -15 6 -16 13 0 10 -2 10 -6 0 -2 -7 -11
-13 -19 -13 -10 0 -14 13 -14 45 0 45 0 45 35 45 35 0 35 0 35 -45z m2790 0
c0 -33 -2 -35 -35 -35 -33 0 -35 2 -35 35 0 33 2 35 35 35 33 0 35 -2 35 -35z
m-120 -5 c0 -28 -2 -30 -40 -30 -38 0 -40 2 -40 30 0 28 2 30 40 30 38 0 40
-2 40 -30z m-2790 -12 c0 -30 -1 -31 -15 -12 -13 16 -14 16 -9 2 3 -10 1 -18
-5 -18 -6 0 -11 14 -11 30 0 23 4 30 20 30 16 0 20 -7 20 -32z m2437 -14 c-3
-3 -12 -4 -19 -1 -8 3 -5 6 6 6 11 1 17 -2 13 -5z m70 -10 c-3 -3 -12 -4 -19
-1 -8 3 -5 6 6 6 11 1 17 -2 13 -5z m-92 -14 c-3 -5 -11 -10 -16 -10 -6 0 -7
5 -4 10 3 6 11 10 16 10 6 0 7 -4 4 -10z m-575 -120 c0 -5 -7 -10 -15 -10 -8
0 -15 5 -15 10 0 6 7 10 15 10 8 0 15 -4 15 -10z m121 -29 c36 -14 69 -36 99
-68 l45 -47 -51 46 c-38 35 -71 53 -130 73 -44 14 -65 24 -49 21 17 -2 55 -14
86 -25z m-398 12 c-134 -2 -352 -2 -485 0 -134 1 -25 2 242 2 267 0 376 -1
243 -2z m367 -40 c13 -15 13 -15 0 -6 -8 6 -31 16 -50 22 l-35 11 35 -5 c19
-3 42 -13 50 -22z m-1103 -300 c-1 -60 -3 -11 -3 107 0 118 2 167 3 108 2 -60
2 -156 0 -215z m1179 276 c3 -6 -5 -3 -20 6 -14 10 -26 19 -26 22 0 7 39 -17
46 -28z m74 -90 c28 -54 17 -49 -14 6 -13 25 -21 43 -15 40 5 -4 18 -24 29
-46z m85 -125 c4 -25 3 -24 -8 6 -8 19 -17 46 -20 60 -5 19 -3 17 8 -6 7 -17
16 -44 20 -60z m-98 44 c-3 -8 -6 -5 -6 6 -1 11 2 17 5 13 3 -3 4 -12 1 -19z
m72 -48 c12 -30 21 -64 20 -75 0 -19 -49 108 -49 129 0 17 8 2 29 -54z m-29
-64 c5 -16 8 -32 5 -34 -7 -7 -22 39 -28 88 -5 42 -5 43 4 10 6 -19 14 -48 19
-64z m-1183 -12 c-3 -3 -12 -4 -19 -1 -8 3 -5 6 6 6 11 1 17 -2 13 -5z m1295
-29 c8 -11 -28 -34 -54 -35 -28 0 -31 20 -6 44 23 22 40 20 60 -9z m-191 9
c14 -13 21 -13 37 -3 17 10 23 10 36 0 34 -28 5 -46 -43 -28 -25 9 -36 9 -52
-2 -28 -17 -45 -1 -30 28 14 25 28 27 52 5z m-1231 -34 c0 -5 -7 -10 -15 -10
-8 0 -15 5 -15 10 0 6 7 10 15 10 8 0 15 -4 15 -10z m1893 -17 c-83 -2 -223
-2 -310 0 -87 1 -18 3 152 3 171 0 242 -2 158 -3z m-683 -7 c0 -3 -4 -8 -10
-11 -5 -3 -10 -1 -10 4 0 6 5 11 10 11 6 0 10 -2 10 -4z m847 -409 c-1 -73 -3
-10 -3 138 0 149 2 208 3 132 2 -76 2 -198 0 -270z m-2030 86 c-1 -59 -3 -13
-3 102 0 116 2 164 3 108 2 -56 2 -151 0 -210z m80 255 c-3 -8 -6 -5 -6 6 -1
11 2 17 5 13 3 -3 4 -12 1 -19z m1393 7 c0 -8 -4 -15 -10 -15 -5 0 -10 7 -10
15 0 8 5 15 10 15 6 0 10 -7 10 -15z m42 -77 c2 -20 0 -34 -4 -32 -4 3 -8 24
-7 47 1 47 6 41 11 -15z m-528 11 c-3 -6 -14 -9 -23 -6 -14 3 -17 -1 -13 -19
2 -14 0 -24 -7 -24 -12 0 -15 42 -4 53 11 12 55 8 47 -4z m348 -6 c-62 -2
-161 -2 -220 0 -59 1 -8 3 113 3 121 0 169 -2 107 -3z m-389 -174 c-4 -4 -6
22 -3 59 l5 67 3 -59 c2 -32 -1 -63 -5 -67z m377 -16 l-5 -68 -3 54 c-3 47 1
81 10 81 2 0 1 -30 -2 -67z m-122 50 c-38 -2 -98 -2 -135 0 -38 2 -7 3 67 3
74 0 105 -1 68 -3z m-208 -133 c0 -5 -7 -10 -15 -10 -8 0 -15 5 -15 10 0 6 7
10 15 10 8 0 15 -4 15 -10z m40 0 c0 -5 -7 -10 -15 -10 -8 0 -15 5 -15 10 0 6
7 10 15 10 8 0 15 -4 15 -10z m-302 -17 c-125 -2 -332 -2 -460 0 -128 1 -26 2
227 2 253 0 358 -1 233 -2z m475 0 c-29 -2 -78 -2 -110 0 -32 2 -8 3 52 3 61
0 87 -1 58 -3z m851 -209 c3 -26 6 -202 6 -391 0 -336 0 -345 20 -350 22 -6
27 -23 7 -23 -35 0 -37 19 -38 384 -1 199 -5 375 -9 391 -4 17 -8 -152 -9
-373 -1 -396 -1 -404 19 -409 11 -3 20 -9 20 -14 0 -13 -27 -11 -36 2 -4 8 -9
8 -17 0 -13 -13 -37 -15 -37 -2 0 5 9 11 20 14 20 5 20 13 20 379 0 205 -4
384 -8 398 -4 14 -9 -139 -12 -340 l-5 -365 -30 -3 c-27 -2 -49 17 -220 188
-154 154 -195 190 -217 190 -20 0 -26 -4 -22 -15 4 -10 0 -15 -11 -15 -11 0
-15 5 -11 15 4 10 -1 15 -14 15 -13 0 -18 -5 -14 -15 4 -10 0 -15 -11 -15 -11
0 -15 5 -11 15 4 10 -1 15 -14 15 -13 0 -18 -5 -14 -15 4 -10 0 -15 -11 -15
-11 0 -15 5 -11 15 4 10 -1 15 -14 15 -13 0 -18 -5 -14 -15 4 -10 0 -15 -11
-15 -11 0 -15 5 -11 15 4 10 -1 15 -14 15 -13 0 -18 -5 -14 -15 4 -10 0 -15
-11 -15 -11 0 -15 5 -11 15 4 10 -1 15 -14 15 -13 0 -18 -5 -14 -15 4 -10 0
-15 -11 -15 -11 0 -15 5 -11 15 4 10 -1 15 -14 15 -13 0 -18 -5 -14 -15 4 -10
0 -15 -11 -15 -11 0 -15 6 -11 18 4 13 -16 40 -74 97 -75 75 -80 82 -78 120
l1 40 4 -35 c3 -28 21 -52 86 -117 l82 -83 180 0 180 0 190 -190 c137 -138
196 -190 210 -188 20 3 20 11 21 368 1 211 -2 346 -6 320 -5 -25 -9 -183 -9
-352 -1 -241 -4 -308 -14 -308 -7 0 -95 83 -197 185 l-185 185 -180 0 -180 0
-77 77 c-65 65 -78 83 -77 108 2 27 2 27 6 5 3 -14 38 -59 81 -102 64 -65 82
-78 109 -78 25 0 31 4 27 15 -4 10 0 15 11 15 11 0 15 -5 11 -15 -4 -13 10
-15 94 -15 84 0 98 2 94 15 -4 10 0 15 11 15 11 0 15 -5 11 -15 -4 -12 3 -15
32 -15 35 0 48 -12 224 -187 l188 -188 0 306 c0 169 3 327 6 353 7 45 7 46 44
46 37 0 37 -1 44 -46z m-2716 -366 c81 -82 142 -148 137 -148 -5 0 -74 64
-152 142 l-143 143 2 75 2 75 3 -70 4 -70 147 -147z m22 27 c77 -77 140 -144
140 -150 0 -5 -65 55 -145 135 l-145 145 2 65 2 65 3 -61 4 -60 139 -139z m25
235 c0 -10 -20 -13 -73 -13 -72 0 -89 4 -79 20 9 14 152 8 152 -7z m71 9 c10
-17 -13 -36 -27 -22 -12 12 -4 33 11 33 5 0 12 -5 16 -11z m-18 -176 l-52 -53
69 -70 c38 -38 67 -72 64 -74 -3 -3 -38 28 -79 69 l-74 75 57 58 c57 57 57 58
59 122 l2 65 3 -69 4 -69 -53 -54z m40 -10 l-42 -43 59 -60 c33 -33 55 -60 49
-60 -5 0 -36 27 -69 60 l-59 60 47 48 c47 48 47 48 49 122 l2 75 3 -79 4 -79
-43 -44z m75 39 c2 -83 6 -155 10 -158 4 -4 7 -12 7 -18 0 -6 -7 -3 -16 6 -12
12 -17 35 -17 85 -1 123 3 246 8 242 2 -3 6 -73 8 -157z m52 3 c0 -80 -3 -145
-7 -145 -8 0 -10 19 -13 140 -2 83 5 163 13 155 3 -3 6 -71 7 -150z m50 24 c0
-77 -4 -124 -11 -126 -7 -2 -10 38 -8 124 3 146 2 136 12 130 4 -3 7 -60 7
-128z m32 -36 c-2 -32 -3 -6 -3 57 0 63 1 89 3 58 2 -32 2 -84 0 -115z m30 25
c-2 -29 -3 -8 -3 47 0 55 1 79 3 53 2 -26 2 -71 0 -100z m30 20 c-2 -24 -4 -5
-4 42 0 47 2 66 4 43 2 -24 2 -62 0 -85z m30 25 c-2 -21 -4 -6 -4 32 0 39 2
55 4 38 2 -18 2 -50 0 -70z m538 78 c-4 -7 -52 -10 -133 -9 l-127 2 120 3 c66
2 124 8 129 13 12 12 20 5 11 -9z m25 -26 c-10 -12 -39 -15 -139 -13 l-126 2
125 6 c119 5 126 6 135 28 8 18 11 19 13 7 2 -9 -2 -22 -8 -30z m24 -26 c-15
-17 -30 -19 -148 -17 l-131 2 125 3 c136 4 159 13 161 62 2 25 2 25 6 -2 3
-18 -2 -36 -13 -48z m44 -252 c-2 -136 0 -187 8 -187 7 0 12 12 11 28 -3 75 4
485 7 481 3 -2 6 -118 7 -257 1 -175 5 -252 13 -252 8 0 10 51 8 171 l-3 171
80 83 c45 45 81 77 81 71 0 -6 -34 -45 -75 -86 l-75 -74 0 -137 c0 -93 4 -139
11 -141 16 -5 1 -68 -16 -68 -8 0 -17 -9 -20 -20 -4 -11 -15 -20 -27 -20 -16
0 -19 -5 -14 -24 6 -26 -9 -45 -24 -30 -14 15 1 66 21 71 22 6 25 23 5 23 -18
0 -34 62 -17 68 8 3 12 73 13 230 1 125 4 196 6 157 1 -38 2 -154 0 -258z m89
296 c-20 -20 -30 -24 -38 -16 -14 14 -2 36 17 29 7 -3 16 -1 19 4 4 6 11 10
18 10 6 0 -1 -12 -16 -27z m31 -30 c-43 -43 -61 -54 -69 -46 -14 14 -2 36 16
29 7 -2 30 13 51 35 21 21 43 39 48 39 6 0 -15 -26 -46 -57z m132 -1 c0 -63
11 -82 47 -82 28 0 30 16 3 23 -16 4 -20 14 -21 46 -1 23 -2 47 -3 54 -1 6 6
12 14 12 12 0 14 -11 12 -49 -5 -67 21 -58 29 10 l6 49 1 -47 c1 -27 7 -48 12
-48 6 0 11 21 12 48 l2 47 3 -47 c2 -27 8 -48 14 -48 5 0 10 21 11 48 l1 47 6
-49 c8 -68 34 -77 29 -10 -2 38 0 49 12 49 8 0 15 -6 14 -12 -1 -7 -2 -31 -2
-54 -2 -32 -6 -42 -22 -46 -28 -7 -25 -23 3 -23 39 0 59 32 55 87 -2 38 0 48
12 48 12 0 14 -11 12 -55 -4 -65 -30 -100 -74 -100 -22 0 -29 -6 -34 -27 -11
-44 6 -58 77 -61 57 -2 67 0 86 20 19 20 23 37 26 128 l3 105 2 -109 c2 -100
0 -112 -20 -133 -19 -20 -31 -23 -93 -23 -78 0 -95 9 -95 52 0 15 -4 28 -10
28 -5 0 -10 -12 -10 -27 0 -21 -19 -46 -77 -105 -78 -79 -113 -96 -113 -57 0
16 5 20 25 17 19 -2 39 12 90 62 42 42 65 72 65 87 0 13 -2 23 -4 23 -2 0 -37
-34 -77 -75 -48 -50 -80 -75 -95 -75 -22 0 -22 2 -20 118 2 122 9 153 29 133
7 -7 12 -53 13 -109 1 -53 2 -101 3 -107 1 -5 28 17 60 49 62 61 68 86 23 86
-45 0 -62 26 -62 97 0 35 4 63 10 63 6 0 10 -26 10 -58z m323 -47 c0 -73 -4
-100 -13 -100 -9 0 -12 26 -12 98 1 119 0 109 13 105 8 -3 12 -39 12 -103z
m277 78 c0 -33 26 -63 54 -62 15 0 16 2 6 6 -30 11 -50 37 -49 62 1 21 2 22 6
6 6 -23 32 -55 44 -55 5 0 8 10 6 23 -2 17 3 22 21 20 15 -2 22 3 23 15 0 14
2 14 9 -3 7 -17 9 -17 9 -2 1 9 6 17 11 17 6 0 10 -8 11 -17 0 -15 2 -15 9 2
7 17 9 17 9 3 1 -12 8 -17 24 -15 17 2 22 -3 20 -20 -5 -44 48 -15 60 32 4 16
5 15 6 -6 1 -28 -22 -54 -54 -62 -17 -4 -16 -5 4 -6 33 -1 61 26 61 61 0 15 5
28 10 28 6 0 10 -14 10 -32 0 -41 -34 -78 -74 -79 -21 -1 -25 -3 -11 -6 11 -3
32 -16 47 -30 20 -20 34 -24 59 -21 29 4 38 -2 104 -71 l73 -76 68 0 67 -1 0
-79 c0 -62 -3 -80 -14 -80 -10 0 -13 10 -11 37 3 34 1 37 -25 40 -22 2 -29 9
-31 32 -3 24 -7 27 -28 23 -21 -4 -38 9 -102 74 -63 64 -83 79 -108 79 -21 0
-39 10 -59 30 -34 36 -56 39 -52 8 1 -17 -3 -23 -18 -24 -11 0 -28 -4 -37 -8
-10 -5 -26 -5 -35 0 -10 4 -27 8 -38 8 -15 1 -19 7 -18 24 3 28 -18 29 -42 2
-28 -31 -55 -24 -108 26 -39 37 -46 49 -41 70 6 23 4 24 -20 18 -20 -5 -26 -2
-26 10 0 18 4 19 38 10 13 -4 22 -14 22 -25 0 -11 5 -19 10 -19 6 0 10 9 10
20 0 11 3 20 8 20 4 0 17 3 30 6 16 5 22 2 22 -11 0 -13 -6 -16 -25 -11 -19 5
-25 2 -25 -10 0 -9 9 -18 20 -21 11 -3 20 -13 20 -23 0 -13 6 -17 20 -13 15 4
20 0 20 -16 0 -11 -5 -21 -11 -21 -16 0 -39 26 -39 44 0 18 -2 19 -25 10 -14
-6 -11 -12 16 -40 38 -39 49 -41 74 -14 10 11 28 21 39 21 17 1 16 3 -4 6 -40
7 -70 42 -70 80 0 18 5 33 10 33 6 0 10 -12 10 -27z m356 -28 c-4 -14 0 -27 9
-35 17 -14 18 -11 19 47 1 18 6 33 11 33 6 0 10 -33 10 -78 0 -42 4 -83 8 -90
17 -25 25 -1 22 63 -3 61 10 147 16 100 6 -62 5 -205 -3 -205 -15 0 -57 54
-58 74 0 10 -13 34 -30 53 -31 34 -35 49 -24 78 7 16 8 16 16 0 6 -9 7 -27 4
-40z m145 -211 c7 -8 42 -14 92 -16 l82 -3 0 -120 1 -120 -3 118 -4 117 -76 0
c-112 0 -114 2 -111 164 l2 131 3 -129 c2 -72 8 -135 14 -142z m96 259 l-88
-4 3 -122 3 -122 85 -6 85 -5 -81 -2 c-51 -1 -84 2 -92 10 -13 13 -18 239 -5
251 3 4 45 6 92 5 l86 -2 -88 -3z m-2697 -53 c0 -43 -3 -50 -20 -50 -17 0 -20
7 -20 50 0 43 3 50 20 50 17 0 20 -7 20 -50z m700 41 c23 -7 23 -8 -13 -15
-39 -7 -61 -1 -52 15 7 10 29 10 65 0z m2240 -1 c0 -5 -7 -10 -15 -10 -8 0
-15 5 -15 10 0 6 7 10 15 10 8 0 15 -4 15 -10z m-170 -65 c0 -58 -2 -65 -20
-65 -18 0 -20 7 -20 65 0 58 2 65 20 65 18 0 20 -7 20 -65z m-90 5 c0 -20 5
-30 15 -30 10 0 15 -10 15 -30 0 -27 3 -30 30 -30 28 0 30 -3 30 -35 l0 -35
-65 0 -65 0 0 95 c0 88 1 95 20 95 16 0 20 -7 20 -30z m260 20 c0 -5 -7 -10
-15 -10 -8 0 -15 5 -15 10 0 6 7 10 15 10 8 0 15 -4 15 -10z m-2715 -20 c0
-10 -20 -13 -73 -13 -72 0 -89 4 -79 20 9 14 152 8 152 -7z m71 9 c10 -17 -13
-36 -27 -22 -12 12 -4 33 11 33 5 0 12 -5 16 -11z m372 -5 c-9 -9 -21 -13 -27
-9 -16 10 -3 25 22 25 20 0 20 -1 5 -16z m1786 -39 c7 -19 -20 -46 -39 -39
-21 8 -26 32 -9 48 16 17 40 12 48 -9z m486 15 c0 -5 -7 -10 -15 -10 -8 0 -15
5 -15 10 0 6 7 10 15 10 8 0 15 -4 15 -10z m-2675 -31 c0 -11 -14 -13 -65 -11
-63 4 -64 3 -47 -14 9 -10 27 -19 40 -19 25 0 31 -28 7 -33 -18 -3 -95 72 -87
85 3 4 38 8 79 7 55 -1 73 -4 73 -15z m711 10 c3 -6 1 -16 -6 -22 -10 -9 -11
-9 -5 2 4 8 2 17 -6 22 -9 6 -10 9 -2 9 6 0 15 -5 19 -11z m57 -64 c0 -51 -3
-70 -14 -73 -11 -3 -11 -1 1 7 10 8 12 13 4 19 -12 7 -25 108 -16 117 16 16
25 -9 25 -70z m60 -1 c0 -51 -3 -69 -13 -69 -10 0 -13 18 -12 68 1 84 0 79 14
75 7 -3 11 -30 11 -74z m60 0 c0 -51 -3 -69 -13 -69 -10 0 -13 18 -12 68 1 84
0 79 14 75 7 -3 11 -30 11 -74z m60 0 c0 -51 -3 -69 -13 -69 -10 0 -13 18 -12
68 1 84 0 79 14 75 7 -3 11 -30 11 -74z m693 45 c10 -17 -13 -36 -27 -22 -12
12 -4 33 11 33 5 0 12 -5 16 -11z m1034 1 c0 -5 -7 -10 -15 -10 -8 0 -15 5
-15 10 0 6 7 10 15 10 8 0 15 -4 15 -10z m-1173 -36 c6 -19 -23 -43 -57 -46
-26 -2 -35 1 -35 12 0 11 9 14 34 12 22 -2 31 0 26 7 -3 6 -3 16 0 22 8 12 27
8 32 -7z m1173 -4 c0 -5 -7 -10 -15 -10 -8 0 -15 5 -15 10 0 6 7 10 15 10 8 0
15 -4 15 -10z m-1552 -89 c2 -59 7 -88 17 -95 21 -15 24 -61 5 -61 -9 0 -14 8
-13 20 1 11 -5 24 -13 28 -10 6 -14 30 -14 92 0 50 -4 85 -10 85 -6 0 -10 -40
-10 -100 0 -55 4 -100 9 -100 14 0 33 -62 22 -73 -15 -15 -32 2 -25 27 4 16 0
25 -10 29 -13 5 -16 25 -16 115 0 60 3 112 7 116 4 4 16 6 28 4 18 -3 20 -11
23 -87z m138 78 c10 -17 -13 -36 -27 -22 -12 12 -4 33 11 33 5 0 12 -5 16 -11z
m439 -9 c0 -10 -14 -14 -48 -15 -47 -1 -63 6 -53 23 8 14 101 7 101 -8z m975
-25 c0 -8 -7 -15 -15 -15 -8 0 -15 7 -15 15 0 8 7 15 15 15 8 0 15 -7 15 -15z
m-2594 -6 c10 -17 -13 -36 -27 -22 -12 12 -4 33 11 33 5 0 12 -5 16 -11z m464
-8 c0 -11 -6 -23 -12 -28 -7 -4 79 -10 192 -13 l205 -5 5 -198 5 -197 200 200
200 200 365 0 365 0 225 -225 224 -224 71 -3 c67 -3 70 -4 70 -28 0 -24 -3
-25 -65 -28 l-65 -3 -225 -225 -225 -224 -310 2 -310 3 -5 203 -5 202 -205
-205 -205 -205 -370 0 -370 0 -220 220 c-219 220 -220 221 -260 218 l-40 -3
-3 -362 c-1 -234 -6 -363 -12 -363 -7 0 -9 129 -8 373 l3 372 48 3 c26 2 47 8
47 13 0 6 -24 9 -57 7 l-58 -3 -3 -382 c-1 -247 -6 -383 -12 -383 -7 0 -9 136
-8 393 l3 392 70 3 70 3 57 57 c32 31 58 61 58 67 0 14 299 310 327 324 12 6
50 11 84 11 54 0 65 4 96 30 39 35 63 39 63 11z m1195 -11 c0 -10 -21 -13 -78
-13 -77 0 -94 4 -84 20 9 14 162 8 162 -7z m578 -207 c114 -114 203 -211 199
-215 -10 -10 -423 402 -416 414 3 4 6 8 8 8 1 0 95 -93 209 -207z m357 182 c0
-8 -7 -15 -15 -15 -8 0 -15 7 -15 15 0 8 7 15 15 15 8 0 15 -7 15 -15z m0 -50
c0 -8 -7 -15 -15 -15 -8 0 -15 7 -15 15 0 8 7 15 15 15 8 0 15 -7 15 -15z m0
-50 c0 -8 -7 -15 -15 -15 -8 0 -15 7 -15 15 0 8 7 15 15 15 8 0 15 -7 15 -15z
m-2948 -110 c0 -80 -3 -110 -12 -110 -9 0 -12 29 -12 108 1 130 0 119 13 115
7 -2 11 -42 11 -113z m2948 60 c0 -8 -7 -15 -15 -15 -8 0 -15 7 -15 15 0 8 7
15 15 15 8 0 15 -7 15 -15z m0 -45 c0 -5 -7 -10 -15 -10 -8 0 -15 5 -15 10 0
6 7 10 15 10 8 0 15 -4 15 -10z m0 -40 c0 -5 -7 -10 -15 -10 -8 0 -15 5 -15
10 0 6 7 10 15 10 8 0 15 -4 15 -10z m-2716 -7 c-5 -5 -12 -12 -16 -18 -4 -6
-8 -2 -8 8 0 9 7 17 17 17 9 0 12 -3 7 -7z m2716 -33 c0 -5 -7 -10 -15 -10 -8
0 -15 5 -15 10 0 6 7 10 15 10 8 0 15 -4 15 -10z m0 -40 c0 -5 -7 -10 -15 -10
-8 0 -15 5 -15 10 0 6 7 10 15 10 8 0 15 -4 15 -10z m0 -40 c0 -5 -7 -10 -15
-10 -8 0 -15 5 -15 10 0 6 7 10 15 10 8 0 15 -4 15 -10z m-104 -21 c10 -17
-13 -36 -27 -22 -12 12 -4 33 11 33 5 0 12 -5 16 -11z m-2708 -246 c3 -77 19
-99 24 -35 3 32 6 37 28 37 21 0 26 -5 28 -33 3 -27 7 -32 22 -27 21 7 37 -12
23 -26 -6 -6 -20 -6 -36 0 -21 8 -27 17 -27 41 0 43 -18 37 -22 -7 -3 -33 -6
-38 -28 -38 -24 0 -25 3 -28 73 -2 40 -7 72 -13 72 -6 0 -9 -72 -8 -202 1
-156 -2 -203 -11 -203 -9 0 -12 48 -11 204 1 113 5 209 7 213 3 5 16 8 27 6
20 -3 22 -10 25 -75z m1509 -61 c-53 -53 -67 -74 -67 -97 0 -25 -19 -49 -110
-140 l-109 -109 -4 -116 -3 -115 -2 120 -2 120 110 110 c91 91 110 115 110
140 0 23 14 43 62 92 34 35 67 63 72 63 6 0 -20 -30 -57 -68z m58 -2 c3 -5
-12 -27 -34 -48 -55 -52 -55 -84 -1 -137 22 -22 40 -48 39 -60 0 -20 0 -20 -9
0 -4 11 -24 36 -44 55 l-36 34 -32 -31 c-30 -31 -31 -33 -15 -51 9 -10 15 -21
12 -24 -3 -3 1 -11 10 -18 13 -11 15 -8 15 18 0 17 -5 34 -10 37 -8 5 -7 11 1
21 9 11 15 12 26 3 10 -9 11 -15 3 -23 -18 -18 -12 -81 10 -101 20 -18 20 -17
20 18 0 20 -5 39 -10 42 -8 5 -7 11 1 21 9 11 15 12 26 3 10 -9 11 -15 3 -23
-5 -5 -10 -28 -10 -51 0 -38 6 -46 105 -145 57 -57 102 -106 99 -109 -2 -3
-72 62 -154 144 -82 82 -153 146 -157 142 -4 -4 56 -71 132 -147 77 -77 135
-140 130 -140 -5 0 -69 59 -142 132 -72 72 -138 133 -146 134 -8 1 -32 -16
-53 -37 l-38 -39 94 -95 c52 -52 90 -95 85 -95 -6 0 -53 43 -105 95 l-94 95
44 45 c24 24 40 48 37 52 -4 4 -31 -16 -60 -45 l-52 -52 95 -95 c52 -52 90
-95 85 -95 -6 0 -53 43 -105 95 l-94 95 59 60 c33 33 55 60 50 60 -5 0 4 13
20 30 15 16 31 27 35 25 4 -2 22 11 40 30 26 27 32 39 28 66 -4 27 1 38 36 74
44 46 51 50 61 35z m1041 -1 c10 -17 -13 -36 -27 -22 -12 12 -4 33 11 33 5 0
12 -5 16 -11z m-2410 -90 l35 -35 -28 -24 -28 -25 22 26 23 25 -35 34 -35 34
-37 -37 -37 -37 34 -35 c24 -25 37 -32 46 -24 7 6 42 12 78 13 58 3 66 1 66
-14 0 -17 -7 -18 -75 -13 -73 6 -75 5 -75 -17 0 -22 2 -23 75 -17 68 5 75 4
75 -13 0 -17 -7 -18 -77 -13 -56 5 -74 3 -69 -5 4 -8 37 -12 86 -12 l79 0 3
41 3 40 45 -45 44 -46 -136 0 c-117 0 -138 2 -146 17 -8 13 -20 15 -76 10 -60
-6 -66 -5 -66 13 0 17 6 18 70 13 68 -6 70 -5 70 17 0 22 -2 23 -70 17 -65 -5
-70 -4 -70 14 0 18 5 19 58 13 l57 -7 -20 22 c-16 18 -26 21 -57 16 -34 -6
-38 -5 -38 15 0 20 4 21 38 15 31 -5 41 -2 57 16 l20 22 -57 -7 c-51 -5 -58
-4 -58 12 0 16 10 17 86 16 84 -1 86 -2 120 -35z m2274 16 c-7 -8 -17 -15 -23
-15 -5 0 -2 9 8 20 21 23 35 19 15 -5z m-906 -41 c0 -36 -4 -49 -14 -49 -10 0
-15 13 -15 45 -1 52 3 62 18 57 6 -2 11 -25 11 -53z m936 21 c-7 -8 -17 -15
-23 -15 -5 0 -2 9 8 20 21 23 35 19 15 -5z m-1198 -118 l-111 -112 -4 -125 -3
-125 -2 130 -2 130 112 112 c62 62 114 110 117 107 3 -2 -45 -55 -107 -117z
m1496 101 c16 -16 16 -95 0 -101 -10 -4 -9 -8 2 -17 13 -10 13 -11 0 -7 -11 2
-15 18 -15 58 l0 54 -94 3 c-85 3 -96 1 -117 -19 -32 -30 -44 -16 -14 16 22
23 30 25 125 25 65 0 105 -4 113 -12z m-2628 -43 c-10 -12 -16 -13 -26 -4 -20
16 -18 19 12 19 22 0 25 -2 14 -15z m2455 -25 c7 0 15 9 18 20 3 11 13 20 22
20 9 0 19 -9 22 -20 7 -26 29 -26 36 1 7 27 42 22 43 -6 1 -15 0 -16 -3 -2 -6
23 -29 22 -36 -3 -3 -11 -13 -20 -22 -20 -9 0 -19 9 -22 20 -7 26 -29 26 -36
-1 -7 -27 -42 -22 -43 6 -1 15 0 16 3 3 3 -10 10 -18 18 -18z m130 -41 c0 -11
-14 -13 -68 -11 -46 3 -73 0 -84 -9 -13 -12 -15 -11 -12 6 4 17 15 21 74 26
85 7 90 6 90 -12z m-60 -88 c9 -28 -5 -51 -31 -51 -13 0 -24 4 -24 9 0 6 8 8
18 6 13 -2 18 3 18 20 0 16 -5 22 -16 20 -9 -2 -23 1 -31 6 -10 6 -3 9 23 9
27 0 38 -5 43 -19z m-1012 -148 c61 -62 107 -113 102 -113 -5 0 -58 48 -117
107 -92 92 -108 112 -107 138 2 27 2 27 6 5 3 -15 49 -70 116 -137z m231 144
c-21 -12 -207 -26 -218 -16 -20 18 9 24 117 24 67 0 109 -4 101 -8z m-758
-132 l0 -130 -5 125 -6 125 -589 3 c-419 1 -593 -1 -602 -9 -9 -8 -14 -46 -17
-127 l-3 -117 -2 121 c-1 83 2 124 10 132 9 9 154 12 613 10 l600 -3 1 -130z
m283 29 c-24 -25 -40 -25 -68 0 -23 21 -22 38 4 66 l19 20 33 -32 33 -32 -21
-22z m-313 -44 l0 -115 -5 110 -6 110 -570 0 -570 0 -6 -110 -5 -110 -2 111
c-1 61 1 114 5 117 3 4 266 6 582 5 l576 -3 1 -115z m-60 91 c10 8 15 9 11 3
-4 -7 0 -17 8 -24 8 -7 15 -20 15 -29 0 -12 -2 -13 -9 -3 -7 11 -9 11 -14 -2
-4 -9 -12 -16 -19 -16 -9 0 -8 3 2 10 12 7 8 10 -15 10 -23 0 -27 -3 -15 -10
10 -7 11 -10 2 -10 -7 0 -15 7 -19 16 -5 13 -7 13 -14 2 -7 -10 -9 -9 -9 3 0
9 7 22 15 29 8 7 12 17 9 22 -3 5 3 4 14 -3 17 -11 24 -10 38 2z m632 0 c10
-6 10 -10 -3 -21 -18 -15 -42 0 -31 19 8 13 16 14 34 2z m-1009 -23 c7 -19 8
-96 2 -145 -2 -20 -49 -16 -54 5 -3 9 -4 40 -3 69 l1 52 -42 -2 c-28 -1 -43
-7 -43 -15 0 -7 5 -10 11 -7 5 4 21 4 35 1 34 -9 34 -53 0 -62 -14 -3 -30 -3
-35 1 -6 3 -11 -1 -11 -10 0 -9 5 -13 11 -10 20 13 59 -4 59 -26 0 -18 -5 -20
-52 -17 l-53 3 -5 70 -5 70 -235 0 -235 0 -6 -80 -6 -80 1 85 1 85 245 0 245
0 5 -70 5 -70 43 -3 c26 -2 42 1 42 8 0 6 -5 8 -11 5 -5 -4 -21 -4 -35 -1 -34
9 -34 53 0 62 14 3 30 3 35 -1 6 -3 11 1 11 10 0 9 -5 13 -11 10 -5 -4 -21 -4
-35 -1 -17 5 -24 13 -24 30 0 29 20 38 71 30 44 -7 48 -16 45 -91 -1 -31 3
-53 9 -53 6 0 10 31 10 78 l-1 77 -334 0 -335 0 -6 -95 -5 -95 -2 96 c-1 53 1
99 5 102 3 4 159 7 345 7 l338 0 9 -22z m52 -61 c-1 -46 1 -77 7 -77 5 0 12 7
16 15 7 21 43 19 56 -2 10 -17 10 -17 20 0 6 9 20 17 30 17 10 0 24 -8 30 -17
10 -17 10 -17 20 0 6 9 20 17 30 17 10 0 24 -8 30 -17 10 -17 10 -17 20 0 13
21 46 22 57 3 4 -8 17 -14 28 -13 12 1 20 -4 20 -13 0 -20 -46 -15 -63 8 -12
16 -14 16 -23 0 -6 -10 -19 -18 -29 -18 -10 0 -24 8 -30 18 -10 16 -10 16 -20
0 -6 -10 -20 -18 -30 -18 -10 0 -24 8 -30 18 -10 16 -10 16 -20 0 -6 -10 -20
-18 -30 -18 -10 0 -23 8 -29 18 -9 16 -11 16 -24 -2 -7 -10 -22 -17 -33 -14
-16 3 -20 14 -25 83 -5 86 -4 98 14 92 8 -2 11 -29 8 -80z m87 56 c2 -13 10
-23 18 -23 11 0 13 6 9 19 -7 22 12 38 26 24 6 -6 6 -20 -1 -37 -8 -22 -15
-27 -38 -24 -19 2 -28 9 -30 26 -5 35 -24 26 -20 -10 3 -33 3 -33 58 -33 l55
0 5 35 c4 29 9 35 30 35 21 0 26 -6 30 -35 l5 -35 65 0 c50 -1 65 -4 65 -15 0
-12 -14 -14 -70 -11 -38 1 -73 5 -77 8 -5 2 -8 20 -8 39 0 46 -18 44 -22 -3
l-3 -38 -75 0 -75 0 -3 39 c-4 52 3 68 30 64 15 -2 24 -11 26 -25z m1867 6 c0
-8 -6 -14 -12 -13 -7 1 -25 2 -40 3 -29 1 -22 16 12 24 28 7 40 3 40 -14z
m-1439 -60 c-5 -27 -4 -28 24 -22 24 4 30 2 30 -12 0 -14 -6 -16 -30 -11 -28
5 -30 4 -24 -18 3 -14 1 -33 -5 -43 -12 -21 -13 -18 -16 67 -2 71 1 84 17 74
5 -4 7 -19 4 -35z m263 -45 c-24 -25 -40 -25 -68 0 -23 21 -22 38 4 66 l19 20
33 -32 33 -32 -21 -22z m-1435 48 c-1 -7 -2 -37 -2 -67 -1 -30 -6 -55 -11 -55
-9 0 -21 118 -13 133 6 12 27 2 26 -11z m86 9 c0 -6 9 -8 20 -6 11 2 22 0 25
-6 4 -5 21 -9 40 -9 19 0 36 4 40 9 3 6 14 8 25 6 11 -2 20 1 20 6 0 6 30 9
73 7 l72 -3 1 -70 1 -70 -6 65 -6 65 -65 3 c-74 3 -74 -15 0 -20 l45 -3 1 -55
1 -55 -6 50 -6 50 -42 3 c-35 3 -41 0 -38 -15 3 -21 -13 -45 -26 -37 -5 3 -9
-4 -9 -15 0 -19 -6 -21 -65 -21 -60 0 -65 2 -66 23 l-2 22 -4 -22 c-4 -19 -11
-23 -44 -23 -41 0 -41 0 -41 65 0 64 1 65 32 65 17 0 30 -4 30 -9z m110 -1 c0
-5 -11 -10 -25 -10 -14 0 -25 5 -25 10 0 6 11 10 25 10 14 0 25 -4 25 -10z
m142 -81 c-3 -28 -9 -34 -39 -44 -15 -4 -23 -2 -23 5 0 7 9 14 21 17 12 4 18
11 15 20 -8 19 2 35 17 30 7 -2 11 -15 9 -28z m1192 -41 c-3 -4 -10 -8 -16 -8
-6 0 -8 3 -5 7 4 3 -3 17 -15 30 -16 17 -24 20 -35 11 -11 -9 -11 -14 3 -30
17 -18 16 -18 -7 -15 -30 5 -32 25 -5 55 l20 22 32 -31 c18 -18 31 -36 28 -41z
m-245 16 c19 -18 6 -31 -14 -14 -8 7 -25 10 -39 6 -25 -6 -42 6 -31 24 8 12
66 1 84 -16z m451 1 c13 -14 19 -25 13 -25 -5 0 -20 11 -33 25 -13 14 -19 25
-13 25 5 0 20 -11 33 -25z m54 -10 c3 -8 1 -15 -4 -15 -6 0 -10 7 -10 15 0 8
2 15 4 15 2 0 6 -7 10 -15z m-167 -96 c-10 -16 -12 -16 -23 -1 -8 12 -9 21 -1
33 10 16 12 16 23 1 8 -12 9 -21 1 -33z m-283 20 c-3 -5 -10 -7 -15 -3 -5 3
-7 10 -3 15 3 5 10 7 15 3 5 -3 7 -10 3 -15z m944 -27 c-17 -20 -40 5 -26 28
11 17 13 17 24 2 9 -12 9 -21 2 -30z m-1204 -13 c-3 -5 -10 -7 -15 -3 -5 3 -7
10 -3 15 3 5 10 7 15 3 5 -3 7 -10 3 -15z m790 0 c-3 -5 -10 -7 -15 -3 -5 3
-7 10 -3 15 3 5 10 7 15 3 5 -3 7 -10 3 -15z m-1749 -50 c61 -16 102 -63 156
-175 50 -102 71 -129 124 -157 17 -9 26 -16 22 -17 -15 0 -51 22 -80 49 -15
14 -48 68 -73 121 -57 119 -90 155 -159 171 -66 15 -156 4 -189 -22 -13 -10
-32 -39 -42 -64 -16 -43 -16 -47 1 -90 20 -55 45 -73 110 -82 40 -5 50 -3 61
12 18 24 18 56 0 80 -19 26 -41 7 -51 -43 l-8 -37 -12 40 c-8 29 -20 44 -44
57 l-34 17 33 8 c28 7 35 16 45 48 l11 40 10 -39 c8 -34 15 -41 44 -50 24 -6
29 -11 17 -13 -15 -4 -16 -6 -2 -26 19 -28 19 -57 -1 -86 -15 -21 -22 -23 -67
-18 -65 8 -95 29 -119 84 -17 40 -19 51 -9 85 16 52 59 98 101 108 51 12 109
11 155 -1z m649 -50 c-3 -5 -10 -7 -15 -3 -5 3 -7 10 -3 15 3 5 10 7 15 3 5
-3 7 -10 3 -15z m1806 18 c0 -2 -10 -12 -22 -23 l-23 -19 19 23 c18 21 26 27
26 19z m-50 -40 c0 -2 -12 -14 -27 -28 l-28 -24 24 28 c23 25 31 32 31 24z
m-1600 -90 l33 -8 -34 -17 c-24 -13 -36 -27 -44 -57 l-11 -40 -10 40 c-7 31
-17 44 -43 57 l-34 17 34 8 c28 8 35 15 43 49 l10 39 11 -40 c10 -32 17 -41
45 -48z m1204 42 c-3 -5 -10 -7 -15 -3 -5 3 -7 10 -3 15 3 5 10 7 15 3 5 -3 7
-10 3 -15z m336 -2 c0 -2 -15 -16 -32 -33 l-33 -29 29 33 c28 30 36 37 36 29z
m-70 -60 c0 -2 -12 -14 -27 -28 l-28 -24 24 28 c23 25 31 32 31 24z m-576 -28
c-3 -5 -10 -7 -15 -3 -5 3 -7 10 -3 15 3 5 10 7 15 3 5 -3 7 -10 3 -15z
m-1144 -64 c-80 -41 -149 -74 -155 -74 -5 0 55 33 135 74 80 41 150 74 155 74
6 0 -55 -33 -135 -74z m932 -11 c7 -5 60 -16 118 -25 58 -9 92 -17 75 -17 -16
-1 -66 5 -110 13 -77 13 -81 13 -97 -7 -10 -11 -18 -28 -18 -37 -1 -9 -7 -1
-15 17 -8 18 -21 35 -28 38 -12 4 -10 10 9 29 13 13 24 32 24 42 1 11 6 6 14
-13 8 -18 20 -35 28 -40z m728 53 c0 -2 -15 -16 -32 -33 l-33 -29 29 33 c28
30 36 37 36 29z m-1380 -37 c12 -16 19 -30 16 -30 -2 0 -14 14 -26 30 -12 17
-19 30 -16 30 2 0 14 -13 26 -30z m404 9 c-3 -5 -10 -7 -15 -3 -5 3 -7 10 -3
15 3 5 10 7 15 3 5 -3 7 -10 3 -15z m856 -102 l33 -8 -34 -17 c-24 -13 -36
-27 -44 -57 l-11 -40 -10 40 c-8 33 -16 43 -52 61 l-42 20 34 1 c46 1 52 6 61
50 l8 38 12 -40 c9 -32 18 -41 45 -48z m-1707 7 c12 -4 9 -11 -10 -30 -19 -19
-23 -32 -19 -52 3 -17 -2 -11 -14 16 -11 23 -26 45 -34 48 -11 4 -9 11 10 29
13 13 24 32 24 42 1 11 6 5 15 -15 8 -18 21 -35 28 -38z m1757 63 c0 -2 -12
-14 -27 -28 l-28 -24 24 28 c23 25 31 32 31 24z m-1576 -38 c-3 -5 -10 -7 -15
-3 -5 3 -7 10 -3 15 3 5 10 7 15 3 5 -3 7 -10 3 -15z m401 -125 c58 -80 104
-148 102 -151 -3 -2 -37 42 -77 99 -40 57 -89 124 -107 151 -19 26 -32 47 -30
47 3 0 53 -66 112 -146z m1419 125 c-3 -5 -10 -7 -15 -3 -5 3 -7 10 -3 15 3 5
10 7 15 3 5 -3 7 -10 3 -15z m-964 8 c0 -2 -15 -16 -32 -33 l-33 -29 29 33
c28 30 36 37 36 29z m390 -16 c33 -6 37 -9 15 -9 -16 0 -50 3 -75 7 -33 6 -37
9 -15 9 17 0 50 -3 75 -7z m98 -18 c-10 -2 -26 -2 -35 0 -10 3 -2 5 17 5 19 0
27 -2 18 -5z m-558 -26 c0 -1 -39 -41 -87 -87 l-88 -85 85 88 c79 81 90 92 90
84z m-336 -68 c-3 -5 -10 -7 -15 -3 -5 3 -7 10 -3 15 3 5 10 7 15 3 5 -3 7
-10 3 -15z m780 -10 c-3 -5 -10 -7 -15 -3 -5 3 -7 10 -3 15 3 5 10 7 15 3 5
-3 7 -10 3 -15z m176 18 c0 -2 -19 -21 -42 -42 l-43 -40 40 43 c36 39 45 47
45 39z m-486 -28 c-3 -5 -10 -7 -15 -3 -5 3 -7 10 -3 15 3 5 10 7 15 3 5 -3 7
-10 3 -15z m-740 -30 c-3 -5 -10 -7 -15 -3 -5 3 -7 10 -3 15 3 5 10 7 15 3 5
-3 7 -10 3 -15z m-367 -31 c-3 -8 -6 -5 -6 6 -1 11 2 17 5 13 3 -3 4 -12 1
-19z m521 -46 c-17 -20 -40 5 -26 28 11 17 13 17 24 2 9 -12 9 -21 2 -30z
m972 45 c0 -2 -19 -21 -42 -42 l-43 -40 40 43 c36 39 45 47 45 39z m-1483 -39
c-3 -8 -6 -5 -6 6 -1 11 2 17 5 13 3 -3 4 -12 1 -19z m763 -61 l33 -8 -34 -17
c-24 -13 -36 -27 -44 -57 l-11 -40 -10 40 c-7 31 -17 44 -43 57 l-34 17 34 8
c28 8 35 15 43 49 l10 39 11 -40 c10 -32 17 -41 45 -48z m20 80 c0 -2 -12 -14
-27 -28 l-28 -24 24 28 c23 25 31 32 31 24z m-726 -206 c15 -47 30 -77 41 -81
9 -3 80 16 157 42 78 27 143 46 145 44 2 -2 -53 -23 -124 -46 -160 -53 -198
-76 -208 -127 l-8 -38 -12 40 c-8 29 -20 44 -44 57 l-34 17 34 8 c38 10 55 51
39 93 -12 32 -40 145 -39 156 1 5 8 -13 16 -41 8 -27 25 -83 37 -124z m74 91
c-17 -20 -40 5 -26 28 11 17 13 17 24 2 9 -12 9 -21 2 -30z m1252 45 c0 -2
-17 -19 -37 -38 l-38 -34 34 38 c33 34 41 42 41 34z m-186 -28 c-3 -5 -10 -7
-15 -3 -5 3 -7 10 -3 15 3 5 10 7 15 3 5 -3 7 -10 3 -15z m304 -37 c-17 -20
-40 5 -26 28 11 17 13 17 24 2 9 -12 9 -21 2 -30z m-624 17 c-3 -5 -10 -7 -15
-3 -5 3 -7 10 -3 15 3 5 10 7 15 3 5 -3 7 -10 3 -15z m-1510 -10 c-3 -5 -10
-7 -15 -3 -5 3 -7 10 -3 15 3 5 10 7 15 3 5 -3 7 -10 3 -15z m2420 0 c-3 -5
-10 -7 -15 -3 -5 3 -7 10 -3 15 3 5 10 7 15 3 5 -3 7 -10 3 -15z m-946 -28
c46 -18 81 -35 79 -37 -5 -5 -177 66 -177 73 0 2 4 3 8 1 4 -1 45 -18 90 -37z
m-854 -2 c-3 -5 -10 -7 -15 -3 -5 3 -7 10 -3 15 3 5 10 7 15 3 5 -3 7 -10 3
-15z m1306 8 c0 -2 -19 -21 -42 -42 l-43 -40 40 43 c36 39 45 47 45 39z m814
-18 c-3 -5 -10 -7 -15 -3 -5 3 -7 10 -3 15 3 5 10 7 15 3 5 -3 7 -10 3 -15z
m-1144 -39 c8 -5 11 -10 5 -10 -5 0 -17 5 -25 10 -8 5 -10 10 -5 10 6 0 17 -5
25 -10z m239 -69 c11 -6 37 -15 58 -21 l38 -10 -35 5 c-19 3 -44 6 -55 7 -14
2 -25 -7 -36 -30 l-17 -32 -6 25 c-4 14 -15 30 -24 36 -17 11 -17 13 5 35 13
13 23 31 23 41 1 11 6 6 15 -14 7 -17 22 -36 34 -42z m-179 44 c14 -8 21 -14
15 -14 -5 0 -21 6 -35 14 -14 8 -20 14 -15 14 6 0 21 -6 35 -14z m-496 -16
c-3 -5 -10 -7 -15 -3 -5 3 -7 10 -3 15 3 5 10 7 15 3 5 -3 7 -10 3 -15z m-960
-10 c-3 -5 -10 -7 -15 -3 -5 3 -7 10 -3 15 3 5 10 7 15 3 5 -3 7 -10 3 -15z
m1516 1 c8 -5 11 -10 5 -10 -5 0 -17 5 -25 10 -8 5 -10 10 -5 10 6 0 17 -5 25
-10z m-46 -41 c-3 -5 -10 -7 -15 -3 -5 3 -7 10 -3 15 3 5 10 7 15 3 5 -3 7
-10 3 -15z m549 -45 c12 -4 10 -10 -9 -29 -13 -13 -24 -32 -24 -42 -1 -11 -6
-5 -15 15 -9 20 -27 38 -47 47 l-33 15 30 -2 c25 -3 33 2 45 28 l15 31 12 -29
c7 -15 19 -31 26 -34z m-250 29 c-7 -2 -19 -2 -25 0 -7 3 -2 5 12 5 14 0 19
-2 13 -5z m92 -13 c27 -7 27 -8 5 -8 -14 0 -38 4 -55 8 -27 7 -27 8 -5 8 14 0
39 -4 55 -8z m-1405 -23 c0 -2 -15 -16 -32 -33 l-33 -29 29 33 c28 30 36 37
36 29z m105 -17 c10 -11 16 -20 13 -20 -3 0 -13 9 -23 20 -10 11 -16 20 -13
20 3 0 13 -9 23 -20z m1169 -11 c-3 -5 -10 -7 -15 -3 -5 3 -7 10 -3 15 3 5 10
7 15 3 5 -3 7 -10 3 -15z m-1500 -10 c-3 -5 -10 -7 -15 -3 -5 3 -7 10 -3 15 3
5 10 7 15 3 5 -3 7 -10 3 -15z m1030 -20 c-3 -5 -10 -7 -15 -3 -5 3 -7 10 -3
15 3 5 10 7 15 3 5 -3 7 -10 3 -15z m-639 -9 c10 -11 16 -20 13 -20 -3 0 -13
9 -23 20 -10 11 -16 20 -13 20 3 0 13 -9 23 -20z m-225 -3 c0 -2 -12 -14 -27
-28 l-28 -24 24 28 c23 25 31 32 31 24z m1564 -28 c-3 -5 -10 -7 -15 -3 -5 3
-7 10 -3 15 3 5 10 7 15 3 5 -3 7 -10 3 -15z m-1926 -47 c-17 -20 -40 5 -26
28 11 17 13 17 24 2 9 -12 9 -21 2 -30z m647 28 c10 -11 16 -20 13 -20 -3 0
-13 9 -23 20 -10 11 -16 20 -13 20 3 0 13 -9 23 -20z m1629 -1 c-3 -5 -10 -7
-15 -3 -5 3 -7 10 -3 15 3 5 10 7 15 3 5 -3 7 -10 3 -15z m-1964 -12 c0 -2
-15 -16 -32 -33 l-33 -29 29 33 c28 30 36 37 36 29z m214 -28 c-3 -5 -10 -7
-15 -3 -5 3 -7 10 -3 15 3 5 10 7 15 3 5 -3 7 -10 3 -15z m279 -45 c12 -4 10
-10 -9 -29 -13 -13 -24 -32 -24 -42 -1 -11 -6 -5 -15 15 -8 18 -21 35 -28 38
-12 4 -10 10 9 29 13 13 24 32 24 42 1 11 6 5 15 -15 8 -18 21 -35 28 -38z
m-98 36 c10 -11 16 -20 13 -20 -3 0 -13 9 -23 20 -10 11 -16 20 -13 20 3 0 13
-9 23 -20z m189 -1 c-3 -5 -10 -7 -15 -3 -5 3 -7 10 -3 15 3 5 10 7 15 3 5 -3
7 -10 3 -15z m-1070 -10 c-3 -5 -10 -7 -15 -3 -5 3 -7 10 -3 15 3 5 10 7 15 3
5 -3 7 -10 3 -15z m2370 -17 c3 -5 -1 -9 -9 -9 -8 0 -12 4 -9 9 3 4 7 8 9 8 2
0 6 -4 9 -8z m-1944 -5 c0 -2 -15 -16 -32 -33 l-33 -29 29 33 c28 30 36 37 36
29z m908 -55 c-17 -20 -40 5 -26 28 11 17 13 17 24 2 9 -12 9 -21 2 -30z
m-955 -28 c12 -4 10 -10 -9 -29 -13 -13 -24 -32 -24 -42 -1 -11 -6 -5 -15 15
-8 18 -21 35 -28 38 -12 4 -10 10 9 29 13 13 24 32 24 42 1 11 6 5 15 -15 8
-18 21 -35 28 -38z m1491 15 c-3 -5 -10 -7 -15 -3 -5 3 -7 10 -3 15 3 5 10 7
15 3 5 -3 7 -10 3 -15z m-1710 -50 c-3 -5 -10 -7 -15 -3 -5 3 -7 10 -3 15 3 5
10 7 15 3 5 -3 7 -10 3 -15z m574 -37 c-17 -20 -40 5 -26 28 11 17 13 17 24 2
9 -12 9 -21 2 -30z m-244 7 c-3 -5 -10 -7 -15 -3 -5 3 -7 10 -3 15 3 5 10 7
15 3 5 -3 7 -10 3 -15z m1120 0 c-3 -5 -10 -7 -15 -3 -5 3 -7 10 -3 15 3 5 10
7 15 3 5 -3 7 -10 3 -15z m-140 -20 c-3 -5 -10 -7 -15 -3 -5 3 -7 10 -3 15 3
5 10 7 15 3 5 -3 7 -10 3 -15z"/>
<path d="M1390 4450 c0 -5 5 -10 10 -10 6 0 10 5 10 10 0 6 -4 10 -10 10 -5 0
-10 -4 -10 -10z"/>
<path d="M1420 4450 c0 -5 5 -10 10 -10 6 0 10 5 10 10 0 6 -4 10 -10 10 -5 0
-10 -4 -10 -10z"/>
<path d="M1450 4450 c0 -5 5 -10 10 -10 6 0 10 5 10 10 0 6 -4 10 -10 10 -5 0
-10 -4 -10 -10z"/>
<path d="M1540 4450 c0 -5 5 -10 10 -10 6 0 10 5 10 10 0 6 -4 10 -10 10 -5 0
-10 -4 -10 -10z"/>
<path d="M1390 4420 c0 -5 5 -10 10 -10 6 0 10 5 10 10 0 6 -4 10 -10 10 -5 0
-10 -4 -10 -10z"/>
<path d="M1420 4420 c0 -5 5 -10 10 -10 6 0 10 5 10 10 0 6 -4 10 -10 10 -5 0
-10 -4 -10 -10z"/>
<path d="M1450 4420 c0 -5 5 -10 10 -10 6 0 10 5 10 10 0 6 -4 10 -10 10 -5 0
-10 -4 -10 -10z"/>
<path d="M1540 4420 c0 -5 5 -10 10 -10 6 0 10 5 10 10 0 6 -4 10 -10 10 -5 0
-10 -4 -10 -10z"/>
<path d="M1390 4390 c0 -5 5 -10 10 -10 6 0 10 5 10 10 0 6 -4 10 -10 10 -5 0
-10 -4 -10 -10z"/>
<path d="M1110 4450 c0 -5 5 -10 10 -10 6 0 10 5 10 10 0 6 -4 10 -10 10 -5 0
-10 -4 -10 -10z"/>
<path d="M1140 4450 c0 -5 5 -10 10 -10 6 0 10 5 10 10 0 6 -4 10 -10 10 -5 0
-10 -4 -10 -10z"/>
<path d="M1110 4420 c0 -5 5 -10 10 -10 6 0 10 5 10 10 0 6 -4 10 -10 10 -5 0
-10 -4 -10 -10z"/>
<path d="M1140 4420 c0 -5 5 -10 10 -10 6 0 10 5 10 10 0 6 -4 10 -10 10 -5 0
-10 -4 -10 -10z"/>
<path d="M1110 4390 c0 -5 5 -10 10 -10 6 0 10 5 10 10 0 6 -4 10 -10 10 -5 0
-10 -4 -10 -10z"/>
<path d="M1200 4390 c0 -5 5 -10 10 -10 6 0 10 5 10 10 0 6 -4 10 -10 10 -5 0
-10 -4 -10 -10z"/>
<path d="M1200 4360 c0 -5 5 -10 10 -10 6 0 10 5 10 10 0 6 -4 10 -10 10 -5 0
-10 -4 -10 -10z"/>
<path d="M1780 4440 c0 -5 5 -10 10 -10 6 0 10 5 10 10 0 6 -4 10 -10 10 -5 0
-10 -4 -10 -10z"/>
<path d="M1810 4440 c0 -5 5 -10 10 -10 6 0 10 5 10 10 0 6 -4 10 -10 10 -5 0
-10 -4 -10 -10z"/>
<path d="M1780 4410 c0 -5 5 -10 10 -10 6 0 10 5 10 10 0 6 -4 10 -10 10 -5 0
-10 -4 -10 -10z"/>
<path d="M1780 4380 c0 -5 5 -10 10 -10 6 0 10 5 10 10 0 6 -4 10 -10 10 -5 0
-10 -4 -10 -10z"/>
<path d="M890 4420 c0 -5 5 -10 10 -10 6 0 10 5 10 10 0 6 -4 10 -10 10 -5 0
-10 -4 -10 -10z"/>
<path d="M920 4420 c0 -5 5 -10 10 -10 6 0 10 5 10 10 0 6 -4 10 -10 10 -5 0
-10 -4 -10 -10z"/>
<path d="M950 4420 c0 -5 5 -10 10 -10 6 0 10 5 10 10 0 6 -4 10 -10 10 -5 0
-10 -4 -10 -10z"/>
<path d="M890 4390 c0 -5 5 -10 10 -10 6 0 10 5 10 10 0 6 -4 10 -10 10 -5 0
-10 -4 -10 -10z"/>
<path d="M920 4390 c0 -5 5 -10 10 -10 6 0 10 5 10 10 0 6 -4 10 -10 10 -5 0
-10 -4 -10 -10z"/>
<path d="M420 4410 c0 -5 5 -10 10 -10 6 0 10 5 10 10 0 6 -4 10 -10 10 -5 0
-10 -4 -10 -10z"/>
<path d="M450 4410 c0 -5 5 -10 10 -10 6 0 10 5 10 10 0 6 -4 10 -10 10 -5 0
-10 -4 -10 -10z"/>
<path d="M540 4410 c0 -5 5 -10 10 -10 6 0 10 5 10 10 0 6 -4 10 -10 10 -5 0
-10 -4 -10 -10z"/>
<path d="M570 4410 c0 -5 5 -10 10 -10 6 0 10 5 10 10 0 6 -4 10 -10 10 -5 0
-10 -4 -10 -10z"/>
<path d="M420 4380 c0 -5 5 -10 10 -10 6 0 10 5 10 10 0 6 -4 10 -10 10 -5 0
-10 -4 -10 -10z"/>
<path d="M450 4380 c0 -5 5 -10 10 -10 6 0 10 5 10 10 0 6 -4 10 -10 10 -5 0
-10 -4 -10 -10z"/>
<path d="M540 4380 c0 -5 5 -10 10 -10 6 0 10 5 10 10 0 6 -4 10 -10 10 -5 0
-10 -4 -10 -10z"/>
<path d="M570 4380 c0 -5 5 -10 10 -10 6 0 10 5 10 10 0 6 -4 10 -10 10 -5 0
-10 -4 -10 -10z"/>
<path d="M1940 4410 c0 -5 5 -10 10 -10 6 0 10 5 10 10 0 6 -4 10 -10 10 -5 0
-10 -4 -10 -10z"/>
<path d="M1970 4410 c0 -5 5 -10 10 -10 6 0 10 5 10 10 0 6 -4 10 -10 10 -5 0
-10 -4 -10 -10z"/>
<path d="M1940 4380 c0 -5 5 -10 10 -10 6 0 10 5 10 10 0 6 -4 10 -10 10 -5 0
-10 -4 -10 -10z"/>
<path d="M130 3000 c0 -5 5 -10 10 -10 6 0 10 5 10 10 0 6 -4 10 -10 10 -5 0
-10 -4 -10 -10z"/>
<path d="M250 3000 c0 -5 5 -10 10 -10 6 0 10 5 10 10 0 6 -4 10 -10 10 -5 0
-10 -4 -10 -10z"/>
<path d="M320 3000 c0 -5 5 -10 10 -10 6 0 10 5 10 10 0 6 -4 10 -10 10 -5 0
-10 -4 -10 -10z"/>
<path d="M1270 2420 c0 -5 5 -10 10 -10 6 0 10 5 10 10 0 6 -4 10 -10 10 -5 0
-10 -4 -10 -10z"/>
<path d="M1350 2990 c0 -5 5 -10 10 -10 6 0 10 5 10 10 0 6 -4 10 -10 10 -5 0
-10 -4 -10 -10z"/>
<path d="M1350 2930 c0 -5 5 -10 10 -10 6 0 10 5 10 10 0 6 -4 10 -10 10 -5 0
-10 -4 -10 -10z"/>
<path d="M1580 3000 c0 -5 5 -10 10 -10 6 0 10 5 10 10 0 6 -4 10 -10 10 -5 0
-10 -4 -10 -10z"/>
<path d="M1730 3000 c0 -5 5 -10 10 -10 6 0 10 5 10 10 0 6 -4 10 -10 10 -5 0
-10 -4 -10 -10z"/>
<path d="M1790 3000 c0 -5 5 -10 10 -10 6 0 10 5 10 10 0 6 -4 10 -10 10 -5 0
-10 -4 -10 -10z"/>
<path d="M1482 2920 c0 -14 2 -19 5 -12 2 6 2 18 0 25 -3 6 -5 1 -5 -13z"/>
<path d="M1640 2885 c0 -20 5 -25 25 -25 20 0 25 5 25 25 0 20 -5 25 -25 25
-20 0 -25 -5 -25 -25z m40 0 c0 -8 -7 -15 -15 -15 -8 0 -15 7 -15 15 0 8 7 15
15 15 8 0 15 -7 15 -15z"/>
<path d="M1470 2875 c0 -8 7 -15 15 -15 8 0 15 7 15 15 0 8 -7 15 -15 15 -8 0
-15 -7 -15 -15z"/>
<path d="M1481 2834 c0 -11 3 -14 6 -6 3 7 2 16 -1 19 -3 4 -6 -2 -5 -13z"/>
<path d="M1470 2795 c0 -8 7 -15 15 -15 8 0 15 7 15 15 0 8 -7 15 -15 15 -8 0
-15 -7 -15 -15z"/>
<path d="M1481 2754 c0 -11 3 -14 6 -6 3 7 2 16 -1 19 -3 4 -6 -2 -5 -13z"/>
<path d="M1470 2715 c0 -8 7 -15 15 -15 8 0 15 7 15 15 0 8 -7 15 -15 15 -8 0
-15 -7 -15 -15z"/>
<path d="M1850 3000 c0 -5 5 -10 10 -10 6 0 10 5 10 10 0 6 -4 10 -10 10 -5 0
-10 -4 -10 -10z"/>
<path d="M1850 2830 c0 -5 5 -10 10 -10 6 0 10 5 10 10 0 6 -4 10 -10 10 -5 0
-10 -4 -10 -10z"/>
<path d="M2220 2980 c0 -5 5 -10 10 -10 15 0 13 -97 -2 -103 -8 -2 -9 -8 -4
-13 5 -5 11 -4 13 4 3 7 23 12 53 12 30 0 50 -5 53 -12 2 -8 8 -9 13 -4 5 5 4
11 -3 13 -8 3 -13 23 -13 53 0 30 5 50 13 53 7 2 8 8 3 13 -5 5 -11 4 -13 -3
-6 -16 -103 -18 -103 -3 0 6 -4 10 -10 10 -5 0 -10 -4 -10 -10z m100 -35 c26
-32 -13 -81 -47 -59 -35 22 -23 74 17 74 10 0 23 -7 30 -15z"/>
<path d="M2270 2934 c-11 -12 -10 -18 3 -32 16 -15 18 -15 34 0 13 14 14 20 3
32 -7 9 -16 16 -20 16 -4 0 -13 -7 -20 -16z m27 -9 c0 -8 -4 -12 -9 -9 -5 3
-6 10 -3 15 9 13 12 11 12 -6z"/>
<path d="M2500 2840 c0 -5 5 -10 10 -10 6 0 10 5 10 10 0 6 -4 10 -10 10 -5 0
-10 -4 -10 -10z"/>
<path d="M2650 2690 c0 -5 5 -10 10 -10 6 0 10 5 10 10 0 6 -4 10 -10 10 -5 0
-10 -4 -10 -10z"/>
<path d="M2710 2690 c0 -5 5 -10 10 -10 6 0 10 -9 10 -20 0 -13 7 -20 20 -20
13 0 20 7 20 19 0 11 6 21 13 24 7 2 8 8 3 13 -5 5 -11 4 -13 -3 -5 -15 -43
-17 -43 -3 0 6 -4 10 -10 10 -5 0 -10 -4 -10 -10z"/>
<path d="M2770 2560 c0 -5 5 -10 10 -10 6 0 10 5 10 10 0 6 -4 10 -10 10 -5 0
-10 -4 -10 -10z"/>
<path d="M20 2955 c0 -14 5 -25 10 -25 6 0 10 11 10 25 0 14 -4 25 -10 25 -5
0 -10 -11 -10 -25z"/>
<path d="M2790 2980 c0 -5 5 -10 10 -10 6 0 10 5 10 10 0 6 -4 10 -10 10 -5 0
-10 -4 -10 -10z"/>
<path d="M2790 2950 c0 -5 5 -10 10 -10 6 0 10 5 10 10 0 6 -4 10 -10 10 -5 0
-10 -4 -10 -10z"/>
<path d="M2790 2920 c0 -5 5 -10 10 -10 6 0 10 5 10 10 0 6 -4 10 -10 10 -5 0
-10 -4 -10 -10z"/>
<path d="M2790 2890 c0 -5 5 -10 10 -10 6 0 10 5 10 10 0 6 -4 10 -10 10 -5 0
-10 -4 -10 -10z"/>
<path d="M2700 2950 c0 -5 5 -10 10 -10 6 0 10 5 10 10 0 6 -4 10 -10 10 -5 0
-10 -4 -10 -10z"/>
<path d="M2700 2920 c0 -5 5 -10 10 -10 6 0 10 5 10 10 0 6 -4 10 -10 10 -5 0
-10 -4 -10 -10z"/>
<path d="M2700 2890 c0 -5 5 -10 10 -10 6 0 10 5 10 10 0 6 -4 10 -10 10 -5 0
-10 -4 -10 -10z"/>
<path d="M2730 2890 c0 -5 5 -10 10 -10 6 0 10 5 10 10 0 6 -4 10 -10 10 -5 0
-10 -4 -10 -10z"/>
<path d="M2730 2830 c0 -5 5 -10 10 -10 6 0 10 5 10 10 0 6 -4 10 -10 10 -5 0
-10 -4 -10 -10z"/>
<path d="M2760 2830 c0 -5 5 -10 10 -10 6 0 10 5 10 10 0 6 -4 10 -10 10 -5 0
-10 -4 -10 -10z"/>
<path d="M2790 2830 c0 -5 5 -10 10 -10 6 0 10 5 10 10 0 6 -4 10 -10 10 -5 0
-10 -4 -10 -10z"/>
<path d="M2700 2800 c0 -5 5 -10 10 -10 6 0 10 5 10 10 0 6 -4 10 -10 10 -5 0
-10 -4 -10 -10z"/>
<path d="M2730 2800 c0 -5 5 -10 10 -10 6 0 10 5 10 10 0 6 -4 10 -10 10 -5 0
-10 -4 -10 -10z"/>
<path d="M130 2940 c0 -5 5 -10 10 -10 6 0 10 5 10 10 0 6 -4 10 -10 10 -5 0
-10 -4 -10 -10z"/>
<path d="M250 2940 c0 -5 5 -10 10 -10 6 0 10 5 10 10 0 6 -4 10 -10 10 -5 0
-10 -4 -10 -10z"/>
<path d="M320 2940 c0 -5 5 -10 10 -10 6 0 10 5 10 10 0 6 -4 10 -10 10 -5 0
-10 -4 -10 -10z"/>
<path d="M2466 2901 c-4 -5 -2 -12 3 -15 5 -4 12 -2 15 3 4 5 2 12 -3 15 -5 4
-12 2 -15 -3z"/>
<path d="M170 2890 c0 -5 5 -10 10 -10 6 0 10 5 10 10 0 6 -4 10 -10 10 -5 0
-10 -4 -10 -10z"/>
<path d="M290 2890 c0 -5 5 -10 10 -10 6 0 10 5 10 10 0 6 -4 10 -10 10 -5 0
-10 -4 -10 -10z"/>
<path d="M1060 2890 c0 -5 5 -10 10 -10 6 0 10 5 10 10 0 6 -4 10 -10 10 -5 0
-10 -4 -10 -10z"/>
<path d="M1120 2890 c0 -5 5 -10 10 -10 6 0 10 5 10 10 0 6 -4 10 -10 10 -5 0
-10 -4 -10 -10z"/>
<path d="M1120 2780 c0 -5 5 -10 10 -10 6 0 10 5 10 10 0 6 -4 10 -10 10 -5 0
-10 -4 -10 -10z"/>
<path d="M1180 2890 c0 -5 5 -10 10 -10 6 0 10 5 10 10 0 6 -4 10 -10 10 -5 0
-10 -4 -10 -10z"/>
<path d="M1180 2780 c0 -5 5 -10 10 -10 6 0 10 5 10 10 0 6 -4 10 -10 10 -5 0
-10 -4 -10 -10z"/>
<path d="M1240 2890 c0 -5 5 -10 10 -10 6 0 10 5 10 10 0 6 -4 10 -10 10 -5 0
-10 -4 -10 -10z"/>
<path d="M1240 2780 c0 -5 5 -10 10 -10 6 0 10 5 10 10 0 6 -4 10 -10 10 -5 0
-10 -4 -10 -10z"/>
<path d="M1930 2870 c0 -5 5 -10 10 -10 6 0 10 5 10 10 0 6 -4 10 -10 10 -5 0
-10 -4 -10 -10z"/>
<path d="M1790 2840 c0 -5 5 -10 10 -10 6 0 10 5 10 10 0 6 -4 10 -10 10 -5 0
-10 -4 -10 -10z"/>
<path d="M1730 2810 c0 -5 5 -10 10 -10 6 0 10 5 10 10 0 6 -4 10 -10 10 -5 0
-10 -4 -10 -10z"/>
<path d="M1450 2610 c0 -5 5 -10 10 -10 6 0 10 5 10 10 0 6 -4 10 -10 10 -5 0
-10 -4 -10 -10z"/>
<path d="M1410 2560 c0 -5 5 -10 10 -10 6 0 10 5 10 10 0 6 -4 10 -10 10 -5 0
-10 -4 -10 -10z"/>
<path d="M1550 2820 c0 -5 5 -10 10 -10 6 0 10 5 10 10 0 6 -4 10 -10 10 -5 0
-10 -4 -10 -10z"/>
<path d="M1920 2820 c0 -5 5 -10 10 -10 6 0 10 5 10 10 0 6 -4 10 -10 10 -5 0
-10 -4 -10 -10z"/>
<path d="M1990 2820 c0 -5 5 -10 10 -10 6 0 10 5 10 10 0 6 -4 10 -10 10 -5 0
-10 -4 -10 -10z"/>
<path d="M370 2780 c0 -5 5 -10 10 -10 6 0 10 5 10 10 0 6 -4 10 -10 10 -5 0
-10 -4 -10 -10z"/>
<path d="M640 2710 c0 -5 20 -10 44 -10 25 0 48 5 51 10 4 6 -13 10 -44 10
-28 0 -51 -4 -51 -10z"/>
<path d="M795 2710 c-4 -6 67 -11 202 -12 l208 -3 0 -215 0 -215 -272 -3
c-171 -1 -273 -6 -273 -12 0 -6 100 -10 273 -10 l272 0 230 230 230 230 355 0
355 0 218 -218 c119 -119 217 -222 217 -227 0 -6 -96 -106 -213 -223 l-212
-212 -285 2 -285 3 0 205 0 205 273 3 c170 1 272 6 272 12 0 6 -106 10 -288
10 l-287 0 -220 -220 -220 -220 -360 0 -360 0 -215 215 -215 215 215 217 c118
120 184 189 145 153 -161 -149 -365 -356 -365 -370 0 -8 98 -113 218 -233
l217 -217 360 0 360 0 215 215 c118 118 218 215 222 215 4 0 9 -96 10 -212 l3
-213 295 -3 295 -2 225 225 225 225 62 0 c35 0 63 4 63 10 0 6 -29 10 -68 10
l-67 0 -225 225 -225 225 -355 0 -355 0 -210 -210 c-115 -115 -213 -210 -217
-210 -4 0 -9 93 -10 208 l-3 207 -212 3 c-133 1 -214 -1 -218 -8z"/>
<path d="M585 2610 c-44 -45 -69 -77 -67 -89 2 -12 -13 -30 -44 -52 -53 -39
-212 -177 -233 -203 -13 -16 4 -36 190 -222 l204 -204 350 0 350 0 220 220
220 220 300 -2 300 -3 0 -25 0 -25 -270 -5 -270 -5 0 -185 0 -185 270 -3 269
-2 208 207 208 208 -212 212 -213 213 -345 0 -345 0 -230 -230 -230 -230 -285
2 -285 3 0 25 0 25 270 5 270 5 0 195 0 195 -214 3 -214 2 -51 -39 c-28 -21
-74 -57 -102 -80 -42 -33 -54 -38 -63 -27 -9 11 3 25 61 71 97 78 95 75 72 75
-11 0 -50 -30 -89 -70z m435 37 c0 -17 -575 -367 -603 -367 -26 0 8 28 106 86
61 37 119 73 127 80 30 25 345 214 357 214 7 0 13 -6 13 -13z m-292 -88 c2
-11 -16 -28 -50 -49 -29 -18 -108 -69 -176 -113 -82 -54 -126 -77 -133 -70
-11 11 -5 17 74 71 146 98 236 163 242 172 10 16 39 8 43 -11z m452 -124 c0
-15 -107 -75 -135 -75 -34 0 -11 28 48 57 70 36 87 39 87 18z m-160 -77 c0 -7
-5 -20 -10 -28 -12 -19 -35 2 -27 24 7 19 37 21 37 4z"/>
<path d="M1900 2770 c0 -5 5 -10 10 -10 6 0 10 5 10 10 0 6 -4 10 -10 10 -5 0
-10 -4 -10 -10z"/>
<path d="M2030 2770 c0 -5 5 -10 10 -10 6 0 10 5 10 10 0 6 -4 10 -10 10 -5 0
-10 -4 -10 -10z"/>
<path d="M2420 2750 c0 -5 5 -10 10 -10 6 0 10 5 10 10 0 6 -4 10 -10 10 -5 0
-10 -4 -10 -10z"/>
<path d="M2810 2360 c0 -5 5 -10 10 -10 6 0 10 5 10 10 0 6 -4 10 -10 10 -5 0
-10 -4 -10 -10z"/>
<path d="M20 2630 c0 -5 5 -10 10 -10 6 0 10 5 10 10 0 6 -4 10 -10 10 -5 0
-10 -4 -10 -10z"/>
<path d="M20 2440 c0 -5 5 -10 10 -10 6 0 10 5 10 10 0 6 -4 10 -10 10 -5 0
-10 -4 -10 -10z"/>
<path d="M2860 2360 c0 -5 5 -10 10 -10 6 0 10 5 10 10 0 6 -4 10 -10 10 -5 0
-10 -4 -10 -10z"/>
<path d="M280 2050 c0 -5 5 -10 10 -10 6 0 10 5 10 10 0 6 -4 10 -10 10 -5 0
-10 -4 -10 -10z"/>
<path d="M120 1790 c0 -5 5 -10 10 -10 6 0 10 5 10 10 0 6 -4 10 -10 10 -5 0
-10 -4 -10 -10z"/>
<path d="M1720 2050 c0 -5 5 -10 10 -10 6 0 10 5 10 10 0 6 -4 10 -10 10 -5 0
-10 -4 -10 -10z"/>
<path d="M1650 1980 c0 -5 5 -10 10 -10 6 0 10 5 10 10 0 6 -4 10 -10 10 -5 0
-10 -4 -10 -10z"/>
<path d="M1560 1805 c0 -8 7 -15 15 -15 8 0 15 7 15 15 0 8 -7 15 -15 15 -8 0
-15 -7 -15 -15z"/>
<path d="M2760 2050 c0 -5 5 -10 10 -10 6 0 10 5 10 10 0 6 -4 10 -10 10 -5 0
-10 -4 -10 -10z"/>
<path d="M180 1990 c0 -5 5 -10 10 -10 6 0 10 5 10 10 0 6 -4 10 -10 10 -5 0
-10 -4 -10 -10z"/>
<path d="M180 1930 c0 -5 5 -10 10 -10 6 0 10 5 10 10 0 6 -4 10 -10 10 -5 0
-10 -4 -10 -10z"/>
<path d="M180 1870 c0 -5 5 -10 10 -10 6 0 10 5 10 10 0 6 -4 10 -10 10 -5 0
-10 -4 -10 -10z"/>
<path d="M450 1870 c0 -5 5 -10 10 -10 6 0 10 5 10 10 0 6 -4 10 -10 10 -5 0
-10 -4 -10 -10z"/>
<path d="M510 1810 c0 -27 3 -30 32 -30 l32 0 -29 30 c-16 17 -30 30 -32 30
-2 0 -3 -13 -3 -30z"/>
<path d="M180 1810 c0 -5 5 -10 10 -10 6 0 10 5 10 10 0 6 -4 10 -10 10 -5 0
-10 -4 -10 -10z"/>
<path d="M450 1810 c0 -5 5 -10 10 -10 6 0 10 5 10 10 0 6 -4 10 -10 10 -5 0
-10 -4 -10 -10z"/>
<path d="M1720 1980 c0 -5 5 -10 10 -10 6 0 10 5 10 10 0 6 -4 10 -10 10 -5 0
-10 -4 -10 -10z"/>
<path d="M1720 1910 c0 -5 5 -10 10 -10 6 0 10 5 10 10 0 6 -4 10 -10 10 -5 0
-10 -4 -10 -10z"/>
<path d="M2910 1840 c0 -5 5 -10 10 -10 6 0 10 5 10 10 0 6 -4 10 -10 10 -5 0
-10 -4 -10 -10z"/>
<path d="M1880 1740 c0 -5 5 -10 10 -10 6 0 10 5 10 10 0 6 -4 10 -10 10 -5 0
-10 -4 -10 -10z"/>
<path d="M1562 1697 c-9 -11 -7 -19 12 -36 19 -18 25 -19 34 -8 9 11 7 19 -12
36 -19 18 -25 19 -34 8z"/>
<path d="M1555 1650 c10 -11 20 -20 23 -20 3 0 -3 9 -13 20 -10 11 -20 20 -23
20 -3 0 3 -9 13 -20z"/>
<path d="M1850 1680 c0 -5 5 -10 10 -10 6 0 10 5 10 10 0 6 -4 10 -10 10 -5 0
-10 -4 -10 -10z"/>
<path d="M900 1670 c0 -5 5 -10 10 -10 6 0 10 5 10 10 0 6 -4 10 -10 10 -5 0
-10 -4 -10 -10z"/>
<path d="M1260 1520 c0 -5 5 -10 10 -10 6 0 10 5 10 10 0 6 -4 10 -10 10 -5 0
-10 -4 -10 -10z"/>
<path d="M1040 1670 c0 -5 5 -10 10 -10 6 0 10 5 10 10 0 6 -4 10 -10 10 -5 0
-10 -4 -10 -10z"/>
<path d="M1260 1590 c0 -5 5 -10 10 -10 6 0 10 5 10 10 0 6 -4 10 -10 10 -5 0
-10 -4 -10 -10z"/>
<path d="M2850 1670 c0 -5 5 -10 10 -10 6 0 10 5 10 10 0 6 -4 10 -10 10 -5 0
-10 -4 -10 -10z"/>
<path d="M1642 1617 c-9 -11 -7 -19 12 -36 19 -18 25 -19 34 -8 9 11 7 19 -12
36 -19 18 -25 19 -34 8z"/>
<path d="M1635 1570 c10 -11 20 -20 23 -20 3 0 -3 9 -13 20 -10 11 -20 20 -23
20 -3 0 3 -9 13 -20z"/>
<path d="M240 1610 c0 -5 5 -10 10 -10 6 0 10 5 10 10 0 6 -4 10 -10 10 -5 0
-10 -4 -10 -10z"/>
<path d="M303 1565 c0 -54 1 -55 29 -55 19 0 28 5 28 16 0 8 -4 13 -9 10 -21
-14 -36 44 -18 72 6 8 2 12 -11 12 -16 0 -19 -8 -19 -55z"/>
<path d="M350 1575 c0 -8 7 -15 15 -15 8 0 15 7 15 15 0 8 -7 15 -15 15 -8 0
-15 -7 -15 -15z"/>
<path d="M418 1583 c12 -2 30 -2 40 0 9 3 -1 5 -23 4 -22 0 -30 -2 -17 -4z"/>
<path d="M490 1575 c0 -8 7 -15 15 -15 8 0 15 7 15 15 0 8 -7 15 -15 15 -8 0
-15 -7 -15 -15z"/>
<path d="M418 1563 c12 -2 30 -2 40 0 9 3 -1 5 -23 4 -22 0 -30 -2 -17 -4z"/>
<path d="M397 1543 c-4 -3 -7 -12 -7 -20 0 -9 16 -13 55 -13 43 0 55 3 55 16
0 8 -4 13 -9 9 -5 -3 -12 -1 -16 5 -7 11 -68 14 -78 3z m63 -13 c0 -5 -11 -10
-25 -10 -14 0 -25 5 -25 10 0 6 11 10 25 10 14 0 25 -4 25 -10z"/>
<path d="M580 1550 c0 -5 5 -10 10 -10 6 0 10 5 10 10 0 6 -4 10 -10 10 -5 0
-10 -4 -10 -10z"/>
<path d="M1470 1520 c0 -5 5 -10 10 -10 6 0 10 5 10 10 0 6 -4 10 -10 10 -5 0
-10 -4 -10 -10z"/>
<path d="M80 2480 c0 -11 5 -20 10 -20 6 0 10 9 10 20 0 11 -4 20 -10 20 -5 0
-10 -9 -10 -20z"/>
<path d="M140 2480 c0 -11 5 -20 10 -20 6 0 10 9 10 20 0 11 -4 20 -10 20 -5
0 -10 -9 -10 -20z"/>
<path d="M200 2480 c0 -11 5 -20 10 -20 6 0 10 9 10 20 0 11 -4 20 -10 20 -5
0 -10 -9 -10 -20z"/>
<path d="M2865 2140 c-32 -34 -41 -90 -14 -90 11 0 15 7 12 23 -3 13 4 33 17
50 18 23 29 27 71 27 27 0 49 5 49 10 0 6 -24 10 -53 10 -46 0 -57 -4 -82 -30z"/>
<path d="M2800 1800 c0 -5 5 -10 10 -10 6 0 10 5 10 10 0 6 -4 10 -10 10 -5 0
-10 -4 -10 -10z"/>
<path d="M2930 1720 c0 -5 16 -10 35 -10 19 0 35 5 35 10 0 6 -16 10 -35 10
-19 0 -35 -4 -35 -10z"/>
<path d="M2778 1493 c7 -3 16 -2 19 1 4 3 -2 6 -13 5 -11 0 -14 -3 -6 -6z"/>
<path d="M2863 1493 c15 -2 37 -2 50 0 12 2 0 4 -28 4 -27 0 -38 -2 -22 -4z"/>
<path d="M2978 1493 c7 -3 16 -2 19 1 4 3 -2 6 -13 5 -11 0 -14 -3 -6 -6z"/>
</g>
</svg>
