<?xml version="1.0" encoding="utf-8" standalone="no"?>
<svg width="100%" viewBox="0.00 0.00 452.00 194.00" xmlns="http://www.w3.org/2000/svg" xmlns:xlink="http://www.w3.org/1999/xlink">
  <g>
    <g class="checked-location not-checked not-open checked-basketball">
      <image xlink:href="../assets/images/Basketball.webp" width="54px" height="54px" preserveAspectRatio="xMinYMin" x="19" y="91" />
    </g>
    <g class="traversed-path before-basketball after-start current-region">
      <path fill="none" stroke="black" d="M46,54.72C46,63.04 46,71.35 46,79.67" class="arrow-line" />
      <polygon fill="black" stroke="black" points="49.5,79.49 46,89.49 42.5,79.49 49.5,79.49" class="arrow-head" />
    </g>
    <g class="checked-location not-checked not-open checked-minotaur">
      <image xlink:href="../assets/images/Minotaur Maze.webp" width="54px" height="54px" preserveAspectRatio="xMinYMin" x="109" y="57" />
    </g>
    <g class="traversed-path before-minotaur after-basketball">
      <path fill="none" stroke="black" d="M72.93,105.98C80.98,102.87 90.02,99.38 98.65,96.05" class="arrow-line" />
      <polygon fill="black" stroke="black" points="97.26,92.83 107.85,92.49 99.78,99.36 97.26,92.83" class="arrow-head" />
    </g>
    <g class="checked-location not-checked not-open checked-prawn-stars">
      <image xlink:href="../assets/images/Prawn Stars.webp" width="54px" height="54px" preserveAspectRatio="xMinYMin" x="109" y="125" />
    </g>
    <g class="traversed-path before-prawn-stars after-basketball">
      <path fill="none" stroke="black" d="M72.93,126.02C80.98,129.13 90.02,132.62 98.65,135.95" class="arrow-line" />
      <polygon fill="black" stroke="black" points="99.78,132.64 107.85,139.51 97.26,139.17 99.78,132.64" class="arrow-head" />
    </g>
    <g class="checked-location not-checked not-open checked-restaurant">
      <image xlink:href="../assets/images/Restaurant.webp" width="54px" height="54px" preserveAspectRatio="xMinYMin" x="199" y="57" />
    </g>
    <g class="traversed-path before-restaurant after-minotaur">
      <path fill="none" stroke="black" d="M162.93,82C170.71,82 179.42,82 187.78,82" class="arrow-line" />
      <polygon fill="black" stroke="black" points="187.74,78.5 197.74,82 187.74,85.5 187.74,78.5" class="arrow-head" />
    </g>
    <g class="checked-location not-checked not-open checked-pirate-bake-sale">
      <image xlink:href="../assets/images/Pirate Bake Sale.webp" width="54px" height="54px" preserveAspectRatio="xMinYMin" x="199" y="125" />
    </g>
    <g class="traversed-path before-pirate-bake-sale after-prawn-stars">
      <path fill="none" stroke="black" d="M162.93,150C170.71,150 179.42,150 187.78,150" class="arrow-line" />
      <polygon fill="black" stroke="black" points="187.74,146.5 197.74,150 187.74,153.5 187.74,146.5" class="arrow-head" />
    </g>
    <g class="checked-location not-checked not-open checked-bowling-ball-door">
      <image xlink:href="../assets/images/Bowling Ball Door.webp" width="54px" height="54px" preserveAspectRatio="xMinYMin" x="289" y="91" />
    </g>
    <g class="traversed-path before-bowling-ball-door after-restaurant">
      <path fill="none" stroke="black" d="M252.93,92.02C260.98,95.13 270.02,98.62 278.65,101.95" class="arrow-line" />
      <polygon fill="black" stroke="black" points="279.78,98.64 287.85,105.51 277.26,105.17 279.78,98.64" class="arrow-head" />
    </g>
    <g class="traversed-path before-bowling-ball-door after-pirate-bake-sale">
      <path fill="none" stroke="black" d="M252.93,139.98C260.98,136.87 270.02,133.38 278.65,130.05" class="arrow-line" />
      <polygon fill="black" stroke="black" points="277.26,126.83 287.85,126.49 279.78,133.36 277.26,126.83" class="arrow-head" />
    </g>
    <g class="checked-location not-checked not-open checked-captured-goldfish">
      <image xlink:href="../assets/images/Captured Goldfish.webp" width="54px" height="54px" preserveAspectRatio="xMinYMin" x="379" y="91" />
    </g>
    <g class="traversed-path before-captured-goldfish after-bowling-ball-door">
      <path fill="none" stroke="black" d="M342.93,116C350.71,116 359.42,116 367.78,116" class="arrow-line" />
      <polygon fill="black" stroke="black" points="367.74,112.5 377.74,116 367.74,119.5 367.74,112.5" class="arrow-head" />
    </g>
  </g>
</svg>