<?xml version="1.0" encoding="utf-8" standalone="no"?>
<svg width="100%" viewBox="0.00 0.00 452.00 145.00" xmlns="http://www.w3.org/2000/svg" xmlns:xlink="http://www.w3.org/1999/xlink">
  <g>
    <g class="checked-location not-checked not-open checked-basketball">
      <image xlink:href="{{ url_for('static', filename='static/icons/autopelago/Basketball.webp') }}" width="54px" height="54px" preserveAspectRatio="xMinYMin" x="19" y="42" />
    </g>
    <g class="traversed-path before-basketball after-start current-region">
      <path fill="none" stroke="black" d="M46,5.72C46,14.04 46,22.35 46,30.67" class="arrow-line" />
      <polygon fill="black" stroke="black" points="49.5,30.49 46,40.49 42.5,30.49 49.5,30.49" class="arrow-head" />
    </g>
    <g class="checked-location not-checked not-open checked-minotaur">
      <image xlink:href="{{ url_for('static', filename='static/icons/autopelago/Minotaur Maze.webp') }}" width="54px" height="54px" preserveAspectRatio="xMinYMin" x="109" y="8" />
    </g>
    <g class="traversed-path before-minotaur after-basketball">
      <path fill="none" stroke="black" d="M72.93,56.98C80.98,53.87 90.02,50.38 98.65,47.05" class="arrow-line" />
      <polygon fill="black" stroke="black" points="97.26,43.83 107.85,43.49 99.78,50.36 97.26,43.83" class="arrow-head" />
    </g>
    <g class="checked-location not-checked not-open checked-prawn-stars">
      <image xlink:href="{{ url_for('static', filename='static/icons/autopelago/Prawn Stars.webp') }}" width="54px" height="54px" preserveAspectRatio="xMinYMin" x="109" y="76" />
    </g>
    <g class="traversed-path before-prawn-stars after-basketball">
      <path fill="none" stroke="black" d="M72.93,77.02C80.98,80.13 90.02,83.62 98.65,86.95" class="arrow-line" />
      <polygon fill="black" stroke="black" points="99.78,83.64 107.85,90.51 97.26,90.17 99.78,83.64" class="arrow-head" />
    </g>
    <g class="checked-location not-checked not-open checked-restaurant">
      <image xlink:href="{{ url_for('static', filename='static/icons/autopelago/Restaurant.webp') }}" width="54px" height="54px" preserveAspectRatio="xMinYMin" x="199" y="8" />
    </g>
    <g class="traversed-path before-restaurant after-minotaur">
      <path fill="none" stroke="black" d="M162.93,33C170.71,33 179.42,33 187.78,33" class="arrow-line" />
      <polygon fill="black" stroke="black" points="187.74,29.5 197.74,33 187.74,36.5 187.74,29.5" class="arrow-head" />
    </g>
    <g class="checked-location not-checked not-open checked-pirate-bake-sale">
      <image xlink:href="{{ url_for('static', filename='static/icons/autopelago/Pirate Bake Sale.webp') }}" width="54px" height="54px" preserveAspectRatio="xMinYMin" x="199" y="76" />
    </g>
    <g class="traversed-path before-pirate-bake-sale after-prawn-stars">
      <path fill="none" stroke="black" d="M162.93,101C170.71,101 179.42,101 187.78,101" class="arrow-line" />
      <polygon fill="black" stroke="black" points="187.74,97.5 197.74,101 187.74,104.5 187.74,97.5" class="arrow-head" />
    </g>
    <g class="checked-location not-checked not-open checked-bowling-ball-door">
      <image xlink:href="{{ url_for('static', filename='static/icons/autopelago/Bowling Ball Door.webp') }}" width="54px" height="54px" preserveAspectRatio="xMinYMin" x="289" y="42" />
    </g>
    <g class="traversed-path before-bowling-ball-door after-restaurant">
      <path fill="none" stroke="black" d="M252.93,43.02C260.98,46.13 270.02,49.62 278.65,52.95" class="arrow-line" />
      <polygon fill="black" stroke="black" points="279.78,49.64 287.85,56.51 277.26,56.17 279.78,49.64" class="arrow-head" />
    </g>
    <g class="traversed-path before-bowling-ball-door after-pirate-bake-sale">
      <path fill="none" stroke="black" d="M252.93,90.98C260.98,87.87 270.02,84.38 278.65,81.05" class="arrow-line" />
      <polygon fill="black" stroke="black" points="277.26,77.83 287.85,77.49 279.78,84.36 277.26,77.83" class="arrow-head" />
    </g>
    <g class="checked-location not-checked not-open checked-captured-goldfish">
      <image xlink:href="{{ url_for('static', filename='static/icons/autopelago/Captured Goldfish.webp') }}" width="54px" height="54px" preserveAspectRatio="xMinYMin" x="379" y="42" />
    </g>
    <g class="traversed-path before-captured-goldfish after-bowling-ball-door">
      <path fill="none" stroke="black" d="M342.93,67C350.71,67 359.42,67 367.78,67" class="arrow-line" />
      <polygon fill="black" stroke="black" points="367.74,63.5 377.74,67 367.74,70.5 367.74,63.5" class="arrow-head" />
    </g>
  </g>
</svg>